<?xml version="1.0" encoding="utf-8"?>
<!-- Generator: Adobe Illustrator 19.0.0, SVG Export Plug-In . SVG Version: 6.00 Build 0)  -->
<svg version="1.1" id="图层_1" xmlns="http://www.w3.org/2000/svg" xmlns:xlink="http://www.w3.org/1999/xlink" x="0px" y="0px"
	 viewBox="0 0 30 30" style="enable-background:new 0 0 30 30;" xml:space="preserve">
<style type="text/css">
	.st0{fill:none;}
	.st1{fill:#41C0F2;}
</style>
<g id="XMLID_749_">
	<rect id="XMLID_760_" x="2" y="10.1" class="st0" width="26" height="18"/>
	<g id="XMLID_6_">
		<rect id="XMLID_759_" x="6" y="14" class="st1" width="4" height="4"/>
		<rect id="XMLID_758_" x="6" y="20" class="st1" width="4" height="4"/>
		<rect id="XMLID_757_" x="13" y="14" class="st1" width="4" height="4"/>
		<rect id="XMLID_756_" x="20" y="14" class="st1" width="4" height="4"/>
		<rect id="XMLID_755_" x="13" y="20" class="st1" width="4" height="4"/>
		<rect id="XMLID_754_" x="6" y="1" class="st1" width="4" height="6"/>
		<rect id="XMLID_753_" x="20" y="1" class="st1" width="4" height="6"/>
	</g>
	<path id="XMLID_750_" class="st1" d="M27,3h-2v3.1v2L19,8V3h-8v5L5,8.1v-1V3H3C1.6,3,0,4.1,0,5.5v22c0.2,1.3,1.3,2.4,2.6,2.5h24.8
		c1.4,0,2.4-1.1,2.6-2.4V5.3C29.9,4,28.4,3,27,3z M28,28.1H2V10H28V28.1z"/>
</g>
</svg>
