<?xml version="1.0" encoding="utf-8"?>
<!-- Generator: Adobe Illustrator 19.0.0, SVG Export Plug-In . SVG Version: 6.00 Build 0)  -->
<svg version="1.1" id="图层_1" xmlns="http://www.w3.org/2000/svg" xmlns:xlink="http://www.w3.org/1999/xlink" x="0px" y="0px"
	 viewBox="0 0 30 30" style="enable-background:new 0 0 30 30;" xml:space="preserve">
<style type="text/css">
	.st0{fill:#41C0F2;}
	.st1{fill:none;}
</style>
<g id="XMLID_920_">
	<g id="XMLID_1_">
		<path id="XMLID_2_" class="st0" d="M21.3,22.9v-1.1H8.7v1.1H7.4c0.1-0.5,0.1-1.1,0.1-2.2V9.4c0-0.9,0-1.6-0.1-2.3
			c0.7,0.1,1.2,0.1,2.1,0.1h10.8c1,0,1.5,0,2.2-0.1c-0.1,0.7-0.1,1.3-0.1,2.3v11.4c0,1.1,0,1.7,0.1,2.2H21.3z M8.7,20.8h12.5V8.3
			H8.7V20.8z M16.6,11.1c0.9,0,1.4,0,1.9-0.1c-0.1,0.4-0.1,0.8-0.1,1.4v4c0,0.7,0,1,0.1,1.4c-0.6-0.1-1.1-0.1-1.9-0.1h-3.2
			c-1.1,0-1.4,0-1.9,0.1c0.1-0.4,0.1-0.8,0.1-1.4v-4c0-0.6,0-1-0.1-1.4c0.5,0.1,1,0.1,1.9,0.1H16.6z M12.6,16.8h4.6v-4.7h-4.6V16.8z
			"/>
	</g>
	<path id="XMLID_926_" class="st1" d="M26.8,21.2c1-1.8,1.5-3.9,1.5-6.2c0-7.4-6-13.3-13.3-13.3c-3.2,0-6.2,1.1-8.5,3"/>
	<path id="XMLID_925_" class="st1" d="M2.6,10.1C2,11.6,1.7,13.3,1.7,15c0,7.4,6,13.3,13.3,13.3c2.7,0,5.3-0.8,7.4-2.2"/>
	<path id="XMLID_924_" class="st0" d="M15,1.7c7.4,0,13.3,6,13.3,13.3c0,2.2-0.6,4.3-1.5,6.2l1.4,1C29.4,20,30,17.7,30,15
		c0-8.3-6.7-15-15-15c-3.7,0-6.9,1.2-9.5,3.4l1,1.3C8.8,2.8,11.8,1.7,15,1.7z"/>
	<path id="XMLID_923_" class="st0" d="M15,28.3c-7.4,0-13.3-6-13.3-13.3c0-1.7,0.3-3.2,0.9-4.7L1.1,9.4C0.2,11.3,0,12.8,0,15
		c0,8.3,6.7,15,15,15c3.2,0,5.9-0.8,8.3-2.5l-1-1.4C20.3,27.5,17.7,28.3,15,28.3z"/>
	<circle id="XMLID_922_" class="st0" cx="3.3" cy="6.7" r="1.2"/>
	<circle id="XMLID_921_" class="st0" cx="25.8" cy="24.2" r="1.2"/>
</g>
</svg>
