<?xml version="1.0" encoding="utf-8"?>
<!-- Generator: Adobe Illustrator 19.0.0, SVG Export Plug-In . SVG Version: 6.00 Build 0)  -->
<svg version="1.1" id="图层_1" xmlns="http://www.w3.org/2000/svg" xmlns:xlink="http://www.w3.org/1999/xlink" x="0px" y="0px"
	 viewBox="0 0 130 130" style="enable-background:new 0 0 130 130;" xml:space="preserve">
<style type="text/css">
	.st0{fill:#C0C1C3;}
</style>
<g id="XMLID_150_">
	<g id="XMLID_538_">
		<path id="XMLID_37_" class="st0" d="M75.7,56.3v2.3l-7-5.2c0-11.7-1.3-13.7-3.6-16.4c-2.3,2.7-3.6,4.1-3.6,16.4l-7,5.2v-2.3
			c0-0.7-0.5-1.2-1.2-1.2c-0.7,0-1.2,0.5-1.2,1.2v4.1l-5.9,4.3v-2.6c0-0.7-0.5-1.2-1.2-1.2c-0.7,0-1.2,0.5-1.2,1.2v4.4l-6.7,5v4.2
			l24.5-9.9c0.3,6.7,0.9,13.4,1.5,18.5l-7.4,5.8v3l8.3-1.7c0.1,0.6,0.1,1,0.2,1.4c0.4,0,1.5,0,1.9,0c0.1-0.4,0.1-0.9,0.2-1.4
			l8.3,1.7v-3L67,84.2c0.6-5.2,1.2-11.8,1.5-18.5L93,75.6v-4.2l-6.7-5v-4.4c0-0.7-0.5-1.2-1.2-1.2c-0.7,0-1.2,0.5-1.2,1.2v2.6
			l-5.9-4.3v-4.1c0-0.7-0.5-1.2-1.2-1.2C76.2,55.1,75.7,55.6,75.7,56.3z"/>
	</g>
</g>
</svg>
