<?xml version="1.0" encoding="utf-8"?>
<!-- Generator: Adobe Illustrator 19.0.0, SVG Export Plug-In . SVG Version: 6.00 Build 0)  -->
<svg version="1.1" id="图层_1" xmlns="http://www.w3.org/2000/svg" xmlns:xlink="http://www.w3.org/1999/xlink" x="0px" y="0px"
	 viewBox="0 0 130 130" style="enable-background:new 0 0 130 130;" xml:space="preserve">
<style type="text/css">
	.st0{fill:url(#XMLID_28_);}
	.st1{fill:#C0C1C3;}
</style>
<g id="XMLID_150_">
	<g id="XMLID_154_">
		
			<linearGradient id="XMLID_28_" gradientUnits="userSpaceOnUse" x1="-2853.6406" y1="2235.2305" x2="-2723.6406" y2="2235.2305" gradientTransform="matrix(-1 0 0 -1 -2723.6406 2332.7305)">
			<stop  offset="0" style="stop-color:#C0C1C3;stop-opacity:0"/>
			<stop  offset="1" style="stop-color:#C0C1C3"/>
		</linearGradient>
		<path id="XMLID_485_" class="st0" d="M7.6,65L7.6,65c0,31.7,25.7,57.4,57.4,57.4c31.7,0,57.4-25.7,57.4-57.4v0h7.6v0
			c0,35.8-29.2,65-65,65S0,100.8,0,65v0H7.6z"/>
		<path id="XMLID_158_" class="st1" d="M7.6,65L7.6,65C7.6,33.3,33.3,7.6,65,7.6c31.7,0,57.4,25.7,57.4,57.4v0h7.6v0
			c0-35.8-29.2-65-65-65S0,29.2,0,65v0H7.6z"/>
		<circle id="XMLID_155_" class="st1" cx="126.2" cy="65" r="3.8"/>
	</g>
</g>
</svg>
