<?xml version="1.0" encoding="utf-8"?>
<!-- Generator: Adobe Illustrator 19.0.0, SVG Export Plug-In . SVG Version: 6.00 Build 0)  -->
<svg version="1.1" id="图层_1" xmlns="http://www.w3.org/2000/svg" xmlns:xlink="http://www.w3.org/1999/xlink" x="0px" y="0px"
	 viewBox="0 0 140 52" style="enable-background:new 0 0 140 52;" xml:space="preserve">
<style type="text/css">
	.st0{opacity:0.45;}
	.st1{fill:#E8E8E8;}
	.st2{fill:#AFAFAF;}
	.st3{fill:#D1D3D3;}
	.st4{fill:#FFFFFF;}
	.st5{opacity:0.45;fill:#AFAFAF;enable-background:new    ;}
	.st6{opacity:0.3;fill:#AFAFAF;enable-background:new    ;}
	.st7{opacity:0.2;fill:#AFAFAF;enable-background:new    ;}
</style>
<g>
	<g class="st0">
		<polygon class="st1" points="76.2,0.2 67.9,0.2 72.9,15.2 93.9,15.2 		"/>
		<path class="st2" d="M133.9,22.2c-1.3-3.8-5.8-7-10-7l0,0h-71c-0.7,0-18.5,0-18.5,0l6.4,15c1.9,4.9,2.4,5,5,5h86.8
			c3.7,0,7-3,7.2-6.7S137.5,22.2,133.9,22.2z"/>
		<rect x="75" y="30.2" class="st3" width="26.2" height="5"/>
		<path class="st4" d="M131.5,18.5h-9.8v3.7h12.2C133.5,20.9,132.7,19.5,131.5,18.5z"/>
		<g>
			<path class="st4" d="M110.1,24.5c0,0.8,0.6,1.4,1.4,1.4h1.5c0.8,0,1.4-0.6,1.4-1.4v-3.2c0-0.8-0.6-1.4-1.4-1.4h-1.5
				c-0.8,0-1.4,0.6-1.4,1.4V24.5z"/>
			<path class="st4" d="M101.2,24.5c0,0.8,0.6,1.4,1.4,1.4h1.5c0.8,0,1.4-0.6,1.4-1.4v-3.2c0-0.8-0.6-1.4-1.4-1.4h-1.5
				c-0.8,0-1.4,0.6-1.4,1.4V24.5z"/>
			<path class="st4" d="M92.3,24.5c0,0.8,0.6,1.4,1.4,1.4h1.5c0.8,0,1.4-0.6,1.4-1.4v-3.2c0-0.8-0.6-1.4-1.4-1.4h-1.5
				c-0.8,0-1.4,0.6-1.4,1.4V24.5z"/>
			<path class="st4" d="M83.4,24.5c0,0.8,0.6,1.4,1.4,1.4h1.5c0.8,0,1.4-0.6,1.4-1.4v-3.2c0-0.8-0.6-1.4-1.4-1.4h-1.5
				c-0.8,0-1.4,0.6-1.4,1.4V24.5z"/>
			<path class="st4" d="M74.6,24.5c0,0.8,0.6,1.4,1.4,1.4h1.5c0.8,0,1.4-0.6,1.4-1.4v-3.2c0-0.8-0.6-1.4-1.4-1.4H76
				c-0.8,0-1.4,0.6-1.4,1.4V24.5z"/>
			<path class="st4" d="M65.7,24.5c0,0.8,0.6,1.4,1.4,1.4h1.5c0.8,0,1.4-0.6,1.4-1.4v-3.2c0-0.8-0.6-1.4-1.4-1.4H67
				c-0.8,0-1.4,0.6-1.4,1.4L65.7,24.5L65.7,24.5z"/>
			<path class="st4" d="M56.8,24.5c0,0.8,0.6,1.4,1.4,1.4h1.5c0.8,0,1.4-0.6,1.4-1.4v-3.2c0-0.8-0.6-1.4-1.4-1.4h-1.5
				c-0.8,0-1.4,0.6-1.4,1.4V24.5z"/>
		</g>
		<polygon class="st1" points="75.9,51.2 67.8,51.5 74.9,30.2 100.9,30.2 		"/>
		<path class="st2" d="M51.1,14.5c-5.7-5-10.8-10-13.3-10c-2.2,0-4.9,1.4-5.7,3.4c-0.3,0.6-0.2,1.3,0.1,2l2.3,5.3H53
			C52.2,15.2,51.6,14.9,51.1,14.5z"/>
	</g>
	<circle class="st5" cx="25.1" cy="23.2" r="3"/>
	<circle class="st6" cx="14.1" cy="23.2" r="3"/>
	<circle class="st7" cx="3.1" cy="23.2" r="3"/>
</g>
</svg>
