<?xml version="1.0" encoding="utf-8"?>
<!-- Generator: Adobe Illustrator 17.0.0, SVG Export Plug-In . SVG Version: 6.00 Build 0)  -->
<!DOCTYPE svg PUBLIC "-//W3C//DTD SVG 1.1//EN" "http://www.w3.org/Graphics/SVG/1.1/DTD/svg11.dtd">
<svg version="1.1" id="图层_1" xmlns="http://www.w3.org/2000/svg" xmlns:xlink="http://www.w3.org/1999/xlink" x="0px" y="0px"
	 width="50px" height="50px" viewBox="0 0 50 50" enable-background="new 0 0 50 50" xml:space="preserve">
<g>
	<path fill="#138EEA" d="M24.999,0c-13.807,0-25,11.193-25,25c0,13.807,11.193,25,25,25c13.807,0,25-11.193,25-25
		C49.999,11.193,38.806,0,24.999,0z M24.999,48c-12.683,0-23-10.317-23-23s10.317-23,23-23s23,10.317,23,23S37.682,48,24.999,48z"/>
	<polygon fill="#138EEA" points="42,24 26,24 26,8 24,8 24,24 8,24 8,26 24,26 24,42 26,42 26,26 42,26 	"/>
</g>
</svg>