<?xml version="1.0" encoding="utf-8"?>
<!-- Generator: Adobe Illustrator 19.0.0, SVG Export Plug-In . SVG Version: 6.00 Build 0)  -->
<svg version="1.1" id="图层_1" xmlns="http://www.w3.org/2000/svg" xmlns:xlink="http://www.w3.org/1999/xlink" x="0px" y="0px"
	 viewBox="0 0 32 32" style="enable-background:new 0 0 32 32;" xml:space="preserve">
<style type="text/css">
	.st0{fill:#55D864;}
</style>
<g>
	<path class="st0" d="M16,1C7.7,1,1,7.7,1,16c0,8.3,6.7,15,15,15c8.3,0,15-6.7,15-15C31,7.7,24.3,1,16,1z M16,29C8.8,29,3,23.2,3,16
		C3,8.8,8.8,3,16,3s13,5.8,13,13C29,23.2,23.2,29,16,29z"/>
	<g>
		<path class="st0" d="M10.9,13c0-2.1,0.6-3.5,1.9-4.4c1-0.7,2.1-1.1,3.4-1.1c1.3,0,2.5,0.4,3.4,1.2c1,0.7,1.5,1.9,1.5,3.4
			c0.1,1.2-0.6,2.5-2.1,3.9c-0.9,0.8-1.5,1.4-1.7,1.9c-0.2,0.5-0.4,1.2-0.4,2.3h-2c0-1.2,0.2-2.1,0.5-2.7c0.2-0.5,0.8-1.3,1.7-2.3
			c0.1-0.1,0.2-0.2,0.3-0.3c1.3-1.1,1.8-2.1,1.6-2.9c-0.2-1.8-1.1-2.7-2.8-2.7c-2.1,0-3.1,1.2-3.1,3.7H10.9z M17,24.5h-2.3v-2.4H17
			V24.5z"/>
	</g>
</g>
</svg>
