<?xml version="1.0" encoding="utf-8"?>
<!-- Generator: Adobe Illustrator 17.0.0, SVG Export Plug-In . SVG Version: 6.00 Build 0)  -->
<!DOCTYPE svg PUBLIC "-//W3C//DTD SVG 1.1//EN" "http://www.w3.org/Graphics/SVG/1.1/DTD/svg11.dtd">
<svg version="1.1" id="图层_1" xmlns="http://www.w3.org/2000/svg" xmlns:xlink="http://www.w3.org/1999/xlink" x="0px" y="0px"
	 width="92px" height="92px" viewBox="0 0 92 92" enable-background="new 0 0 92 92" xml:space="preserve">
<g>

		<linearGradient id="SVGID_2_" gradientUnits="userSpaceOnUse" x1="-2015.4408" y1="665.7395" x2="-1925.4408" y2="665.7395" gradientTransform="matrix(-1 0 0 1 -1924.4408 -597.2395)">
		<stop  offset="0" style="stop-color:#138EEA;stop-opacity:0"/>
		<stop  offset="1" style="stop-color:#138EEA"/>
	</linearGradient>
	<path fill="url(#SVGID_2_)" d="M6.293,46c0,0,0,0,0,0.002c0,21.929,17.778,39.703,39.707,39.703
		c21.93,0,39.706-17.775,39.706-39.703c0-0.002,0-0.002,0-0.002H91c0,0,0,0,0,0.002C91,70.814,70.813,91,46,91S1,70.814,1,46.002
		C1,46,1,46,1,46H6.293z"/>
	<path fill="#138EEA" d="M6.293,46v-0.002C6.293,24.069,24.071,6.293,46,6.293c21.93,0,39.706,17.776,39.706,39.705V46H91v-0.002
		C91,21.186,70.813,1,46,1S1,21.186,1,45.998V46H6.293z"/>
	<circle fill="#138EEA" cx="88.353" cy="46" r="2.647"/>
</g>
</svg>
