<?xml version="1.0" encoding="utf-8"?>
<!-- Generator: Adobe Illustrator 17.0.0, SVG Export Plug-In . SVG Version: 6.00 Build 0)  -->
<!DOCTYPE svg PUBLIC "-//W3C//DTD SVG 1.1//EN" "http://www.w3.org/Graphics/SVG/1.1/DTD/svg11.dtd">
<svg version="1.1" id="图层_1" xmlns="http://www.w3.org/2000/svg" xmlns:xlink="http://www.w3.org/1999/xlink" x="0px" y="0px"
	 width="40px" height="40px" viewBox="0 0 40 40" enable-background="new 0 0 40 40" xml:space="preserve">
<g>
	<circle fill="#FFAC4E" cx="20" cy="20" r="18"/>
	<g id="XMLID_6986_">
		<path id="XMLID_7871_" fill="#FFFFFF" d="M28.707,30.906h-6c-0.116,0-0.227-0.021-0.334-0.048
			c-0.106,0.028-0.218,0.048-0.333,0.048H11.374c-0.737,0-1.334-0.598-1.334-1.334V10.906c0-0.737,0.597-1.333,1.334-1.333H22.04
			c0.737,0,1.334,0.596,1.334,1.333v4.668h5.334c0.736,0,1.333,0.596,1.333,1.334v12.666C30.04,30.309,29.443,30.906,28.707,30.906
			L28.707,30.906z M15.374,13.574h-2.667v2.666h2.667V13.574L15.374,13.574z M15.374,18.906h-2.667v2.666h2.667V18.906
			L15.374,18.906z M15.374,24.239h-2.667v2.666h2.667V24.239L15.374,24.239z M20.04,13.574h-2.666v2.666h2.666V13.574L20.04,13.574z
			 M20.04,18.906h-2.666v2.666h2.666V18.906L20.04,18.906z M20.04,24.239h-2.666v2.666h2.666V24.239L20.04,24.239z M27.374,18.906
			h-2.666v2.666h2.666V18.906L27.374,18.906L27.374,18.906z M27.374,24.239h-2.666v2.666h2.666V24.239L27.374,24.239L27.374,24.239z
			"/>
	</g>
</g>
</svg>
