<?xml version="1.0" encoding="utf-8"?>
<!-- Generator: Adobe Illustrator 17.0.0, SVG Export Plug-In . SVG Version: 6.00 Build 0)  -->
<!DOCTYPE svg PUBLIC "-//W3C//DTD SVG 1.1//EN" "http://www.w3.org/Graphics/SVG/1.1/DTD/svg11.dtd">
<svg version="1.1" id="图层_1" xmlns="http://www.w3.org/2000/svg" xmlns:xlink="http://www.w3.org/1999/xlink" x="0px" y="0px"
	 width="40px" height="40px" viewBox="0 0 40 40" enable-background="new 0 0 40 40" xml:space="preserve">
<g>
	<circle fill="#B2EDEA" cx="20" cy="20" r="18"/>
	<g>
		<path fill="#FFFFFF" d="M22.878,27.262c-0.398,0-0.721,0.323-0.721,0.722c0,0.679-0.553,1.231-1.231,1.231
			c-0.68,0-1.231-0.552-1.231-1.231v-5.407H18.25v5.407c0,1.476,1.2,2.676,2.676,2.676s2.676-1.2,2.676-2.676
			C23.601,27.585,23.278,27.262,22.878,27.262z"/>
		<path fill="#FFFFFF" d="M29.993,20.38c-0.055-5.166-4.594-9.389-10.299-9.71V9.715c0-0.399-0.323-0.722-0.722-0.722
			S18.25,9.316,18.25,9.715v0.958C12.534,11.019,8,15.282,8,20.475c0,0.398,0.324,0.722,0.722,0.722h0.144
			c0.308,0,0.583-0.196,0.683-0.486c0.258-0.747,0.961-1.247,1.748-1.247s1.49,0.501,1.748,1.247c0.1,0.29,0.375,0.486,0.683,0.486
			h0.286c0.308,0,0.581-0.196,0.683-0.486c0.258-0.747,0.961-1.247,1.748-1.247c0.787,0,1.49,0.501,1.749,1.247
			c0.1,0.29,0.374,0.486,0.681,0.486h0.188c0.308,0,0.581-0.196,0.683-0.487c0.258-0.746,0.959-1.247,1.748-1.247
			c0.787,0,1.49,0.501,1.748,1.247c0.1,0.291,0.374,0.487,0.683,0.487h0.286c0.307,0,0.581-0.196,0.683-0.487
			c0.257-0.746,0.961-1.247,1.748-1.247c0.789,0,1.491,0.501,1.748,1.247c0.1,0.291,0.375,0.487,0.683,0.487h0.202
			c0.001-0.001,0.003-0.001,0.004,0c0.399,0,0.724-0.324,0.724-0.722C30,20.443,29.997,20.41,29.993,20.38z"/>
	</g>
</g>
</svg>
