<?xml version="1.0" encoding="utf-8"?>
<!-- Generator: Adobe Illustrator 17.0.0, SVG Export Plug-In . SVG Version: 6.00 Build 0)  -->
<!DOCTYPE svg PUBLIC "-//W3C//DTD SVG 1.1//EN" "http://www.w3.org/Graphics/SVG/1.1/DTD/svg11.dtd">
<svg version="1.1" id="图层_1" xmlns="http://www.w3.org/2000/svg" xmlns:xlink="http://www.w3.org/1999/xlink" x="0px" y="0px"
	 width="36px" height="28px" viewBox="0 0 36 28" enable-background="new 0 0 36 28" xml:space="preserve">
<g>
	<path fill="#999999" d="M16.508,23.634c-1.196,0-2.166,0.976-2.166,2.183c0,1.206,0.97,2.183,2.166,2.183
		c1.197,0,2.166-0.977,2.166-2.183C18.674,24.61,17.705,23.634,16.508,23.634L16.508,23.634z M25.171,23.634
		c-1.196,0-2.165,0.976-2.165,2.183c0,1.206,0.968,2.183,2.165,2.183s2.166-0.977,2.166-2.183
		C27.337,24.61,26.367,23.634,25.171,23.634L25.171,23.634z M33.835,23.634c-1.197,0-2.166,0.976-2.166,2.183
		c0,1.206,0.97,2.183,2.166,2.183C35.031,28,36,27.023,36,25.817C36,24.61,35.031,23.634,33.835,23.634L33.835,23.634z
		 M33.835,23.634"/>
	<g>
		<g>
			<g>
				<g>
					<polygon fill="#999999" points="0,26.963 7.566,24.918 2.057,19.364 					"/>
				</g>
			</g>
			<g>
				<g>
					<polygon fill="#999999" points="8.564,23.918 22.884,9.476 17.373,3.921 3.052,18.363 					"/>
				</g>
			</g>
			<g>
				<g>
					<path fill="#999999" d="M23.987,8.364l2.423-2.444c0.484-0.489,0.484-1.288,0-1.777l-3.747-3.777
						c-0.484-0.488-1.278-0.488-1.764,0l-2.421,2.445L23.987,8.364z"/>
				</g>
			</g>
		</g>
	</g>
</g>
</svg>
