<?xml version="1.0" encoding="utf-8"?>
<!-- Generator: Adobe Illustrator 19.0.0, SVG Export Plug-In . SVG Version: 6.00 Build 0)  -->
<svg version="1.1" id="图层_1" xmlns="http://www.w3.org/2000/svg" xmlns:xlink="http://www.w3.org/1999/xlink" x="0px" y="0px"
	 viewBox="0 0 20 24" style="enable-background:new 0 0 20 24;" xml:space="preserve">
<style type="text/css">
	.st0{fill:#138EEA;}
</style>
<g id="XMLID_413_">
	<path id="XMLID_417_" class="st0" d="M9.9,1C5,1,1,5.1,1,10.1c0,1.9,0.6,3.8,1.8,5.4l5.3,7.7c0.4,0.5,1,0.8,1.7,0.8
		s1.3-0.3,1.7-0.8l5.7-7.7c1.2-1.6,1.8-3.4,1.8-5.4C18.8,5,14.8,1,9.9,1L9.9,1z M15.8,14.5l-5.7,7.7c-0.1,0.2-0.3,0.2-0.4,0.2
		c-0.1,0-0.3,0-0.4-0.2L4,14.5c-1-1.3-1.5-2.8-1.5-4.4c0-4.1,3.3-7.5,7.3-7.5c4.1,0,7.3,3.4,7.3,7.5C17.2,11.6,16.7,13.2,15.8,14.5
		L15.8,14.5z"/>
	<path id="XMLID_414_" class="st0" d="M9.9,6c-2.2,0-4,1.8-4,4.1c0,2.2,1.8,4.1,4,4.1s4-1.8,4-4.1S12.1,6,9.9,6L9.9,6z M9.9,12.5
		c-1.4,0-2.5-1.1-2.5-2.5s1.1-2.5,2.5-2.5s2.5,1.1,2.5,2.5S11.3,12.5,9.9,12.5L9.9,12.5z"/>
</g>
</svg>
