<?xml version="1.0" encoding="utf-8"?>
<!-- Generator: Adobe Illustrator 19.0.0, SVG Export Plug-In . SVG Version: 6.00 Build 0)  -->
<svg version="1.1" id="图层_1" xmlns="http://www.w3.org/2000/svg" xmlns:xlink="http://www.w3.org/1999/xlink" x="0px" y="0px"
	 viewBox="0 0 26 26" style="enable-background:new 0 0 26 26;" xml:space="preserve">
<style type="text/css">
	.st0{fill:#138EEA;}
</style>
<g id="XMLID_430_">
	<path id="XMLID_431_" class="st0" d="M24.8,23.4l-6-6l-0.1-0.1c1.5-1.8,2.5-4.2,2.5-6.8C21.2,4.8,16.5,0,10.6,0C4.8,0,0,4.7,0,10.6
		c0,5.8,4.7,10.6,10.6,10.6c2.6,0,4.9-0.9,6.8-2.5c0,0,0,0.1,0.1,0.1l6,6c0.4,0.4,1,0.4,1.3,0C25.1,24.4,25.1,23.8,24.8,23.4
		L24.8,23.4z M10.6,19.1c-4.7,0-8.6-3.8-8.6-8.6S5.8,2,10.6,2c4.7,0,8.6,3.8,8.6,8.6S15.3,19.1,10.6,19.1L10.6,19.1z"/>
</g>
</svg>
