<?xml version="1.0" encoding="utf-8"?>
<!-- Generator: Adobe Illustrator 19.0.0, SVG Export Plug-In . SVG Version: 6.00 Build 0)  -->
<svg version="1.1" id="图层_1" xmlns="http://www.w3.org/2000/svg" xmlns:xlink="http://www.w3.org/1999/xlink" x="0px" y="0px"
	 viewBox="0 0 44 44" style="enable-background:new 0 0 44 44;" xml:space="preserve">
<style type="text/css">
	.st0{fill:#138EEA;}
</style>
<g id="Page-1_10_" transform="translate(415.000000, 661.000000)">
	<g id="Clip-2_10_">
	</g>
	<path id="Fill-1_34_" class="st0" d="M-407.3-632.3c0,0-2.9-1.5-3.3-2c-0.4-0.5-4.4-7-4.4-7l3.1-0.9c0.9-0.2,1.6,0.1,2,0.7l4.8,4.9
		c0.2,0.5,1.3,0.5,2.6,0.5h5.8l-8.2-9.8l3.7-1.2l14.3,11h12.2c2.3,0,3.7,1.1,3.7,2.4c0,1.2-1.5,2.4-3.7,2.4h-25.7
		C-402.8-631.1-405.1-631.5-407.3-632.3"/>
</g>
</svg>
