<?xml version="1.0" encoding="utf-8"?>
<!-- Generator: Adobe Illustrator 19.0.0, SVG Export Plug-In . SVG Version: 6.00 Build 0)  -->
<svg version="1.1" id="图层_1" xmlns="http://www.w3.org/2000/svg" xmlns:xlink="http://www.w3.org/1999/xlink" x="0px" y="0px"
	 viewBox="0 0 42 42" style="enable-background:new 0 0 42 42;" xml:space="preserve">
<style type="text/css">
	.st0{fill-rule:evenodd;clip-rule:evenodd;fill:none;stroke:#748C9C;stroke-width:2;stroke-miterlimit:10;}
</style>
<g>
	<circle id="XMLID_3_" class="st0" cx="21" cy="21" r="20"/>
	<path id="XMLID_2_" class="st0" d="M30,17c-1.6,0-3,1.4-3,3v3H15v-3c0-1.6-1.4-3-3-3s-3,1.4-3,3v10c0,1.6,1.4,3,3,3s3-1.4,3-3v-1
		h12v1c0,1.6,1.4,3,3,3s3-1.4,3-3V20C33,18.4,31.6,17,30,17z"/>
	<path id="XMLID_1_" class="st0" d="M11.8,17v-5.8c0-1.2,1-2.2,2.2-2.2h13.7c1.2,0,2.2,1,2.2,2.2V17"/>
</g>
</svg>
