<?xml version="1.0" encoding="utf-8"?>
<!-- Generator: Adobe Illustrator 19.0.0, SVG Export Plug-In . SVG Version: 6.00 Build 0)  -->
<svg version="1.1" id="图层_1" xmlns="http://www.w3.org/2000/svg" xmlns:xlink="http://www.w3.org/1999/xlink" x="0px" y="0px"
	 viewBox="0 0 44 44" style="enable-background:new 0 0 44 44;" xml:space="preserve">
<style type="text/css">
	.st0{fill:#138EEA;}
</style>
<path id="Fill-1_33_" class="st0" d="M7.7,31.7c-0.5-0.2-7.1-4.1-7.1-4.1l2.3-2.2C3.6,24.8,4.4,24.8,5,25l6.5,2.1
	c0.5,0.4,1.5-0.2,2.6-0.9l5.4-2.8L7.4,18.7l2.6-2.8L28,18.7l10.8-5.9c2.1-1.1,3.7-0.7,4.3,0.5c0.6,1.1,0,2.8-2,3.9L18.6,29.4
	c-2.1,1.1-4.7,2.1-7,2.3C11.7,31.8,8.4,31.9,7.7,31.7z"/>
</svg>
