<?xml version="1.0" encoding="utf-8"?>
<!-- Generator: Adobe Illustrator 19.0.0, SVG Export Plug-In . SVG Version: 6.00 Build 0)  -->
<svg version="1.1" id="图层_1" xmlns="http://www.w3.org/2000/svg" xmlns:xlink="http://www.w3.org/1999/xlink" x="0px" y="0px"
	 viewBox="0 0 42 42" style="enable-background:new 0 0 42 42;" xml:space="preserve">
<style type="text/css">
	.st0{fill-rule:evenodd;clip-rule:evenodd;fill:none;stroke:#748C9C;stroke-width:2;stroke-miterlimit:10;}
	.st1{fill:#748C9C;}
	.st2{fill-rule:evenodd;clip-rule:evenodd;fill:none;stroke:#748C9C;stroke-width:1.25;stroke-miterlimit:10;}
</style>
<g>
	<circle id="XMLID_1_" class="st0" cx="21" cy="21" r="20"/>
	<g>
		<g>
			<path class="st1" d="M24.3,35.3c-0.2,0-0.4-0.1-0.5-0.2L10.7,22c-0.3-0.3-0.4-0.7-0.4-1.1l1-8.8c0.1-0.6,0.6-1.1,1.2-1.2l8.8-1
				c0.4,0,0.8,0.1,1.1,0.4L35.1,23c0.5,0.5,0.5,1.4,0,1.9L24.8,35.1C24.7,35.3,24.5,35.3,24.3,35.3z M12,21.2l11.9,11.9
				c0.2,0.2,0.6,0.2,0.8,0l8.8-8.8c0.2-0.2,0.2-0.6,0-0.8L21.6,11.7c-0.1-0.1-0.3-0.2-0.5-0.2l-7.9,0.9c-0.3,0-0.5,0.2-0.5,0.5
				l-0.9,7.9C11.8,20.9,11.9,21.1,12,21.2z"/>
		</g>
		<circle class="st2" cx="17.6" cy="17.2" r="2.5"/>
	</g>
</g>
</svg>
