<?xml version="1.0" encoding="utf-8"?>
<!-- Generator: Adobe Illustrator 19.0.0, SVG Export Plug-In . SVG Version: 6.00 Build 0)  -->
<svg version="1.1" id="图层_1" xmlns="http://www.w3.org/2000/svg" xmlns:xlink="http://www.w3.org/1999/xlink" x="0px" y="0px"
	 viewBox="0 0 188 188" style="enable-background:new 0 0 188 188;" xml:space="preserve">
<style type="text/css">
	.st0{fill:#DFE5E9;}
	.st1{fill-rule:evenodd;clip-rule:evenodd;fill:#FFFFFF;}
	.st2{fill:#FFFFFF;}
</style>
<g>
	<circle id="XMLID_746_" class="st0" cx="94" cy="94" r="94"/>
	<g>
		<g>
			<path class="st1" d="M113.3,93H65.7c-0.9,0-1.7,0.8-1.7,1.7v4.6c0,0.9,0.8,1.7,1.7,1.7h47.6c0.9,0,1.7-0.8,1.7-1.7v-4.6
				C115,93.8,114.2,93,113.3,93z M65.7,125h33.6c0.9,0,1.7-0.8,1.7-1.7v-4.6c0-0.9-0.8-1.7-1.7-1.7H65.7c-0.9,0-1.7,0.8-1.7,1.7v4.6
				C64,124.2,64.8,125,65.7,125z M102.3,148H51.7c-0.9,0-1.7-0.8-1.7-1.7V47.7c0-0.9,0.8-1.7,1.7-1.7h76.6c0.9,0,1.7,0.8,1.7,1.7
				V102c0,0.9,0.8,1.7,1.7,1.7h4.6c0.9,0,1.7-0.8,1.7-1.7V42.6c0-2.5-2.1-4.6-4.6-4.6H46.6c-2.5,0-4.6,2.1-4.6,4.6v108.8
				c0,2.5,2.1,4.6,4.6,4.6h55.7c0.9,0,1.7-0.8,1.7-1.7v-4.6C104,148.8,103.2,148,102.3,148z M64,71.7v4.6c0,0.9,0.8,1.7,1.7,1.7
				h47.6c0.9,0,1.7-0.8,1.7-1.7v-4.6c0-0.9-0.8-1.7-1.7-1.7H65.7C64.8,70,64,70.8,64,71.7z M129.9,156"/>
		</g>
		<path class="st2" d="M131,109c-13.8,0-25,11.2-25,25s11.2,25,25,25s25-11.2,25-25S144.8,109,131,109z M131,115
			c10.5,0,19,8.5,19,19c0,3.1-0.8,6-2.1,8.6l-31.2-21.1C120.2,117.5,125.3,115,131,115z M112,134c0-2.6,0.5-5.1,1.5-7.4l30.9,20.9
			c-3.4,3.4-8.2,5.5-13.4,5.5C120.5,153,112,144.5,112,134z"/>
	</g>
</g>
</svg>
