<?xml version="1.0" encoding="utf-8"?>
<!-- Generator: Adobe Illustrator 19.0.0, SVG Export Plug-In . SVG Version: 6.00 Build 0)  -->
<svg version="1.1" id="图层_1" xmlns="http://www.w3.org/2000/svg" xmlns:xlink="http://www.w3.org/1999/xlink" x="0px" y="0px"
	 viewBox="0 0 188 188" style="enable-background:new 0 0 188 188;" xml:space="preserve">
<style type="text/css">
	.st0{fill:#DFE5E9;}
	.st1{fill-rule:evenodd;clip-rule:evenodd;fill:#FFFFFF;}
</style>
<g>
	<g>
		<circle id="XMLID_748_" class="st0" cx="94" cy="94" r="94"/>
		<g>
			<path class="st1" d="M102.3,92H68.7c-0.9,0-1.7,0.8-1.7,1.7v4.6c0,0.9,0.8,1.7,1.7,1.7h33.6c0.9,0,1.7-0.8,1.7-1.7v-4.6
				C104,92.8,103.2,92,102.3,92z M68.7,124h33.6c0.9,0,1.7-0.8,1.7-1.7v-4.6c0-0.9-0.8-1.7-1.7-1.7H68.7c-0.9,0-1.7,0.8-1.7,1.7v4.6
				C67,123.2,67.8,124,68.7,124z M116.3,147H54.7c-0.9,0-1.7-0.8-1.7-1.7V46.7c0-0.9,0.8-1.7,1.7-1.7h76.6c0.9,0,1.7,0.8,1.7,1.7
				v20.6c0,0.9,0.8,1.7,1.7,1.7h4.6c0.9,0,1.7-0.8,1.7-1.7V41.6c0-2.5-2.1-4.6-4.6-4.6H49.6c-2.5,0-4.6,2.1-4.6,4.6v108.8
				c0,2.5,2.1,4.6,4.6,4.6h66.7c0.9,0,1.7-0.8,1.7-1.7v-4.6C118,147.8,117.2,147,116.3,147z M67,70.7v4.6c0,0.9,0.8,1.7,1.7,1.7
				h47.6c0.9,0,1.7-0.8,1.7-1.7v-4.6c0-0.9-0.8-1.7-1.7-1.7H68.7C67.8,69,67,69.8,67,70.7z M156.3,82.2c-3.7-3.1-9.5-5.5-16.1-5.5
				c-6.6,0-11.7,1.5-16,4.6c-0.1,0-0.1,0.1-0.2,0.1c-5.2,4.2-5.9,10.6-6,15.8c0,0.9,0.7,1.7,1.7,1.7h6.7c0.8,0,1.6-0.6,1.7-1.5
				c0.4-3.3,2.1-8.3,3.9-10.4c0.1-0.1,0.2-0.2,0.4-0.3c2.2-1.5,5-2.2,7.9-2.2c3.7,0,6.6,0.8,8.8,3.1c2.2,1.6,2.9,4.7,2.9,8.6
				c0,3.1-0.7,5.5-2.2,7.8c-1.5,2.3-3.6,5.4-7.3,9.3c0,0-0.1,0.1-0.1,0.1c-3.6,3.1-5.8,5.4-6.5,7.8c-0.6,1.4-1.6,7.9-1.8,11.9
				c-0.1,1,0.7,1.8,1.7,1.8h7.5c1,0,1.7-0.8,1.7-1.7c-0.1-2.4-0.2-7.5,0.4-8.8c0.7-1.5,2.2-3.1,3.6-4.6c0,0,0.1-0.1,0.1-0.1
				c4.3-3.8,7.1-7.6,10-10.7c0.1-0.2,0.3-0.3,0.3-0.5c1.4-3.8,2.8-7.6,2.8-12.2C162.2,90.1,160,85.4,156.3,82.2L156.3,82.2z
				 M132.9,155"/>
		</g>
	</g>
	<path class="st1" d="M143.2,150h-7.4c-1,0-1.8-0.8-1.8-1.8v-5.4c0-1,0.8-1.8,1.8-1.8h7.4c1,0,1.8,0.8,1.8,1.8v5.4
		C145,149.2,144.2,150,143.2,150z"/>
</g>
</svg>
