<?xml version="1.0" encoding="utf-8"?>
<!-- Generator: Adobe Illustrator 19.0.0, SVG Export Plug-In . SVG Version: 6.00 Build 0)  -->
<svg version="1.1" id="图层_1" xmlns="http://www.w3.org/2000/svg" xmlns:xlink="http://www.w3.org/1999/xlink" x="0px" y="0px"
	 viewBox="0 0 188 188" style="enable-background:new 0 0 188 188;" xml:space="preserve">
<style type="text/css">
	.st0{fill:#DFE5E9;}
	.st1{fill-rule:evenodd;clip-rule:evenodd;fill:#FFFFFF;}
	.st2{fill:#FFFFFF;}
</style>
<g>
	<circle id="XMLID_747_" class="st0" cx="94" cy="94" r="94"/>
	<g>
		<circle class="st1" cx="75.4" cy="72.8" r="7.3"/>
		<g>
			<path class="st2" d="M162.6,112.1l-47.6,47.6c-3.3,3.3-8.7,3.1-12.1-0.3l-56.6-56.6c-1.7-1.7-2.6-3.8-2.6-6.1l-1.1-48.7
				c-0.1-4.7,3.6-8.5,8.4-8.4l48.7,1.1c2.3,0.1,4.5,1,6.1,2.6l56.6,56.6C165.8,103.4,165.9,108.8,162.6,112.1z M50.4,48.1l1.1,48.7
				c0,0.2,0.1,0.4,0.2,0.5l56.6,56.6c0.3,0.3,0.8,0.3,1,0l47.6-47.6c0.3-0.3,0.3-0.7,0-1l-56.6-56.6c-0.1-0.1-0.3-0.2-0.5-0.2
				l-48.7-1.1C50.7,47.4,50.4,47.7,50.4,48.1L50.4,48.1z"/>
		</g>
	</g>
</g>
</svg>
