<?xml version="1.0" encoding="utf-8"?>
<!-- Generator: Adobe Illustrator 19.0.0, SVG Export Plug-In . SVG Version: 6.00 Build 0)  -->
<svg version="1.1" id="图层_1" xmlns="http://www.w3.org/2000/svg" xmlns:xlink="http://www.w3.org/1999/xlink" x="0px" y="0px"
	 viewBox="10 -7 42 42" style="enable-background:new 10 -7 42 42;" xml:space="preserve">
<style type="text/css">
	.st0{fill:none;stroke:#748C9C;stroke-width:2;stroke-miterlimit:10;}
	.st1{fill:#748C9C;}
</style>
<g>
	<circle id="XMLID_2_" class="st0" cx="31" cy="14" r="20"/>
	<path id="XMLID_1_" class="st1" d="M36.2,4.3c-0.1,0-0.3,0.1-0.4,0.2L33,10.1c-0.8,1.6-1.4,2.6-1.6,3.1l0,0
		c-0.5-1.2-2.1-4.1-4.6-8.7c-0.1-0.1-0.2-0.2-0.3-0.2h-2.1c-0.3,0-0.5,0.3-0.3,0.6l5.2,8.9h-4.1c-0.2,0-0.4,0.2-0.4,0.4v1.3
		c0,0.2,0.2,0.4,0.4,0.4H30v2.9h-4.9c-0.2,0-0.4,0.2-0.4,0.4v1.3c0,0.2,0.2,0.4,0.4,0.4H30v3.8c0,0.2,0.2,0.4,0.4,0.4h1.8
		c0.2,0,0.4-0.2,0.4-0.4v-3.8h4.7c0.2,0,0.4-0.2,0.4-0.4v-1.3c0-0.2-0.2-0.4-0.4-0.4h-4.7v-2.9h4.7c0.2,0,0.4-0.2,0.4-0.4v-1.3
		c0-0.2-0.2-0.4-0.4-0.4h-3.8l5-8.9c0.2-0.3,0-0.6-0.3-0.6L36.2,4.3z"/>
</g>
</svg>
