<?xml version="1.0" encoding="utf-8"?>
<!-- Generator: Adobe Illustrator 19.0.0, SVG Export Plug-In . SVG Version: 6.00 Build 0)  -->
<svg version="1.1" id="图层_1" xmlns="http://www.w3.org/2000/svg" xmlns:xlink="http://www.w3.org/1999/xlink" x="0px" y="0px"
	 viewBox="0 0 96 90" style="enable-background:new 0 0 96 90;" xml:space="preserve">
<g id="XMLID_173_">
	<path id="XMLID_1678_" style="fill:none;" d="M95.9,25.6v0.8C96.1,26.1,96,25.8,95.9,25.6z"/>
	
		<rect id="XMLID_1676_" x="42.9" y="59.8" transform="matrix(0.4071 0.9134 -0.9134 0.4071 80.0758 -3.6875)" style="fill:#FFFFFF;" width="0" height="0.1"/>
	<path id="XMLID_1675_" style="fill:#FFFFFF;" d="M44.7,59.6l-0.1-0.1c-0.2-0.1-0.5,0.1-0.6,0.2C44.2,59.8,44.5,59.9,44.7,59.6z"/>
	<path id="XMLID_1674_" style="fill:#FFFFFF;" d="M38,50.1c0.2,0,0.5,0,0.6-0.3c0.1-0.1-0.1-0.1-0.1-0.2c-0.2,0-0.4,0.1-0.5,0.2
		C37.9,50,38.1,50.1,38,50.1z"/>
	<path id="XMLID_1673_" style="fill:#FFFFFF;" d="M29.2,62.4c-0.2,0.2,0,0.5,0.2,0.3c0.1-0.1,0-0.2,0-0.3
		C29.3,62.4,29.3,62.4,29.2,62.4z"/>
	<path id="XMLID_1672_" style="fill:#FFFFFF;" d="M28,58c0,0.1-0.1,0.1,0,0.2c0.1,0.1,0.2,0,0.2-0.1C28.2,58.1,28.1,57.9,28,58z"/>
	<path id="XMLID_1671_" style="fill:#FFFFFF;" d="M23.7,41.3c0.1,0,0.1,0,0.2,0c0-0.1,0-0.2,0-0.3c-0.1-0.1-0.1-0.1-0.2-0.2
		c-0.1,0.1-0.2,0.2-0.2,0.2c0,0.1,0,0.2-0.1,0.2C23.5,41.4,23.6,41.4,23.7,41.3C23.6,41.4,23.6,41.4,23.7,41.3z"/>
	<path id="XMLID_1670_" style="fill:#FFFFFF;" d="M24.5,39.3C24.5,39.3,24.5,39.3,24.5,39.3c0-0.1,0-0.1,0-0.2c0,0,0,0-0.1,0
		c0,0,0,0,0,0.1L24.5,39.3z"/>
	<path id="XMLID_1669_" style="fill:#FFFFFF;" d="M50.2,66.4L50.2,66.4l0.3,0c0-0.1,0.2-0.1,0.1-0.3c-0.2-0.1-0.3,0.1-0.5,0.1
		C50.2,66.3,50.1,66.5,50.2,66.4z"/>
	<path id="XMLID_1668_" style="fill:#FFFFFF;" d="M29.9,59.5c0,0.1-0.2,0.1-0.1,0.2c0.1,0.1,0.1,0,0.2,0
		C30.1,59.6,30,59.5,29.9,59.5z"/>
	<path id="XMLID_1667_" style="fill:#FFFFFF;" d="M36.4,54.3c-0.1,0.2-0.3,0.2-0.2,0.5c0.2,0.1,0.4,0,0.5-0.1
		c0.1-0.1,0.2-0.2,0.1-0.3C36.7,54.2,36.5,54.3,36.4,54.3z"/>
	<path id="XMLID_1665_" style="fill:#FFFFFF;" d="M26.4,35.8c0-0.1-0.1-0.2-0.1-0.3c-0.1,0-0.2,0.1-0.3,0.1c0,0.1,0.1,0.2,0.1,0.3
		C26.2,35.9,26.3,35.9,26.4,35.8z"/>
	<path id="XMLID_1664_" style="fill:#FFFFFF;" d="M25.4,56c-0.1,0.2-0.2,0.3-0.1,0.5c0.1,0,0.2,0.2,0.4,0.1c0.2-0.1,0.2-0.2,0.2-0.4
		C25.8,56,25.6,56,25.4,56z"/>
	<path id="XMLID_1663_" style="fill:#FFFFFF;" d="M39.1,56.1L39.1,56.1C39.1,56.1,39.1,56.1,39.1,56.1c0.1,0,0.2-0.1,0.4-0.2
		c0.1-0.1,0.1-0.2,0.1-0.4c-0.2-0.3-0.6,0-0.7,0.1c0.2,0,0,0.4,0.3,0.3c0,0.1-0.1,0.2-0.2,0.1c0,0,0-0.1,0-0.1l0,0l-0.1,0l0,0
		c0,0,0,0-0.1,0c0,0.1,0,0.1,0,0.2L39.1,56.1z"/>
	<path id="XMLID_1662_" style="fill:#FFFFFF;" d="M38.7,55.9c0,0.1-0.1,0.1-0.1,0.1L38.7,55.9C38.7,55.9,38.7,55.9,38.7,55.9z"/>
	<polygon id="XMLID_1661_" style="fill:#FFFFFF;" points="38.8,56 38.8,56 38.8,56 	"/>
	<path id="XMLID_1659_" style="fill:#FFFFFF;" d="M70.6,60c0.1,0-0.1,0.2,0.1,0.2l0,0.1l0.3,0c0-0.1,0.2-0.1,0.1-0.3
		C70.9,59.7,70.7,59.9,70.6,60z"/>
	<path id="XMLID_1643_" style="fill:#FFFFFF;" d="M64.4,46.2C64.4,46.2,64.4,46.2,64.4,46.2l-0.2,0C64.3,46.3,64.4,46.2,64.4,46.2z"
		/>
	<path id="XMLID_1642_" style="fill:#FFFFFF;" d="M64.2,46.2l0,0.1l0.1,0C64.2,46.3,64.2,46.3,64.2,46.2z"/>
	<path id="XMLID_1641_" style="fill:#FFFFFF;" d="M64.1,46.2c0.1,0,0.2-0.3,0.4-0.1c0.1,0.1,0,0.1,0,0.2l0.1,0c0,0,0.2-0.1,0.1-0.3
		c-0.3-0.2-0.5,0-0.8,0.2L64.1,46.2L64.1,46.2z"/>
	<path id="XMLID_1640_" style="fill:#FFFFFF;" d="M73.8,28C73.7,28,73.7,28,73.8,28c0,0,0,0.1,0.1,0.1C73.8,28,73.8,28,73.8,28z"/>
	<path id="XMLID_1639_" style="fill:#FFFFFF;" d="M83.1,53.7l0.1,0.1c0,0.2-0.1,0.1-0.2,0.2c0.2-0.1,0.3-0.1,0.4-0.3
		c0-0.1,0-0.2-0.1-0.2c-0.2,0-0.3,0.1-0.4,0.3C83,53.8,83.1,53.8,83.1,53.7z"/>
	<path id="XMLID_1636_" style="fill:#FFFFFF;" d="M66.9,30.5C66.9,30.5,66.9,30.5,66.9,30.5c0,0,0,0.1,0,0.1c0.1,0,0.1-0.1,0.2-0.1
		C66.9,30.5,66.9,30.5,66.9,30.5z"/>
	<polygon id="XMLID_1635_" style="fill:#FFFFFF;" points="65.6,60.1 65.6,60.1 65.6,60.1 	"/>
	<path id="XMLID_1632_" style="fill:#FFFFFF;" d="M70.6,47.1l0.1,0L70.6,47.1C70.7,46.9,70.6,46.9,70.6,47.1
		C70.6,47,70.6,47,70.6,47.1z"/>
	<path id="XMLID_1631_" style="fill:#FFFFFF;" d="M74.2,44.5C74.1,44.5,74.2,44.6,74.2,44.5L74.2,44.5L74.2,44.5z"/>
	<path id="XMLID_1630_" style="fill:#FFFFFF;" d="M78.9,44.7l0.4-0.2l0,0.2l-0.1,0l0,0.1l-0.1,0c0.1,0,0.1-0.1,0.2,0l0.1-0.2l0.1,0
		c0,0,0,0.1,0,0.1l0.1-0.2l-0.1-0.1C79.2,44.4,79.1,44.6,78.9,44.7z"/>
	<path id="XMLID_1629_" style="fill:#FFFFFF;" d="M82,44.9c0.1,0,0.4-0.2,0.2-0.3c-0.1,0.1-0.4,0-0.4,0.2c0.1,0.1,0.1-0.1,0.2,0
		L82,44.9c-0.1,0-0.2,0-0.3,0c0,0,0-0.1,0-0.1c-0.1,0-0.1,0.2-0.1,0.2C81.7,44.9,81.8,45.1,82,44.9z"/>
	<path id="XMLID_1628_" style="fill:#FFFFFF;" d="M74.8,44.1c-0.1,0-0.2,0-0.2,0.1c0,0,0.1,0.1,0,0.2l-0.1,0.2l-0.1,0c0,0,0,0,0,0
		l-0.1,0.1c0.2,0,0.5,0,0.6-0.3C75,44.2,74.9,44.1,74.8,44.1z"/>
	<path id="XMLID_1627_" style="fill:#FFFFFF;" d="M74.6,44.2C74.6,44.2,74.6,44.2,74.6,44.2C74.6,44.2,74.6,44.2,74.6,44.2
		C74.6,44.2,74.6,44.2,74.6,44.2z"/>
	<path id="XMLID_1626_" style="fill:#FFFFFF;" d="M74.5,44.4L74.5,44.4C74.5,44.3,74.5,44.4,74.5,44.4z"/>
	<path id="XMLID_960_" style="fill:#FFFFFF;" d="M74.4,44.4c0,0,0-0.1,0.1-0.1C74.4,44.3,74.3,44.4,74.4,44.4L74.4,44.4z"/>
	<path id="XMLID_959_" style="fill:#FFFFFF;" d="M26.4,58.2c0-0.1,0-0.1,0-0.2c0,0-0.1,0-0.1,0C26.1,58.1,26.3,58.2,26.4,58.2z"/>
	<path id="XMLID_958_" style="fill:#FFFFFF;" d="M19,15.1c-0.1,0-0.1-0.1-0.1-0.2c0,0,0,0-0.1,0c0,0-0.1,0.1-0.3,0.3
		C18.7,15.3,19,15.3,19,15.1z"/>
	<path id="XMLID_957_" style="fill:#FFFFFF;" d="M17.6,16.2c0,0-0.1,0.1-0.2,0.1c-0.1,0-0.2,0.1-0.3,0.2
		C17.3,16.6,17.5,16.4,17.6,16.2z"/>
	<path id="XMLID_956_" style="fill:#FFFFFF;" d="M22.8,14.9l0.4-0.1c0-0.2-0.2-0.4-0.4-0.3C22.9,14.6,22.8,14.7,22.8,14.9z"/>
	<path id="XMLID_955_" style="fill:#FFFFFF;" d="M14.6,19.6C14.6,19.6,14.5,19.7,14.6,19.6C14.6,19.7,14.6,19.7,14.6,19.6
		C14.6,19.6,14.6,19.6,14.6,19.6z"/>
	<path id="XMLID_954_" style="fill:#FFFFFF;" d="M9.8,28.4C9.8,28.4,9.8,28.3,9.8,28.4c0-0.1,0-0.1,0-0.1
		C9.8,28.3,9.8,28.3,9.8,28.4C9.8,28.4,9.8,28.4,9.8,28.4z"/>
	<path id="XMLID_953_" style="fill:#FFFFFF;" d="M55.6,3.9c0-0.1-0.1-0.1-0.2-0.1c0,0,0,0,0.1,0C55.5,3.9,55.5,3.9,55.6,3.9z"/>
	<path id="XMLID_952_" style="fill:#FFFFFF;" d="M52.1,1.4C52.1,1.4,52.1,1.4,52.1,1.4C52.1,1.4,52.1,1.4,52.1,1.4L52,1.4
		c-0.1,0-0.3,0-0.4,0c0.1,0.1,0.2,0.1,0.2,0.2C52,1.5,52.1,1.5,52.1,1.4z"/>
	<path id="XMLID_951_" style="fill:#FFFFFF;" d="M25.6,10.2c0,0.1-0.1,0.1-0.2,0.1C25.5,10.3,25.6,10.3,25.6,10.2z"/>
	<path id="XMLID_950_" style="fill:#FFFFFF;" d="M7.7,38.3c0-0.1,0-0.2,0-0.3C7.6,38,7.6,38.3,7.7,38.3C7.7,38.4,7.7,38.4,7.7,38.3z
		"/>
	<path id="XMLID_949_" style="fill:#FFFFFF;" d="M32.5,6.3c-0.4,0.4-0.3,0-0.8,0.1C31.7,6.8,32.7,6.8,32.5,6.3z"/>
	<path id="XMLID_948_" style="fill:#FFFFFF;" d="M5.3,48.7c0,0.2-0.1,0.4-0.1,0.6c0.3-0.1,0.4-0.4,0.5-0.6
		C5.6,48.8,5.5,48.7,5.3,48.7z"/>
	<path id="XMLID_947_" style="fill:#FFFFFF;" d="M9.4,79.6c0,0.2,0.1,0.4,0.2,0.5c0,0,0.1,0,0.1,0c0,0,0.1,0,0.1,0
		c0-0.1,0.1-0.3,0.3-0.3c-0.1-0.2-0.3-0.2-0.3-0.5C9.6,79.4,9.5,79.5,9.4,79.6z"/>
	<path id="XMLID_946_" style="fill:#FFFFFF;" d="M58.3,1.6c0.1-0.2-0.1-0.6-0.4-0.4C57.9,1.5,58,1.7,58.3,1.6z"/>
	<path id="XMLID_945_" style="fill:#FFFFFF;" d="M6.5,73.4C6.6,73.4,6.6,73.5,6.5,73.4c0,0.2,0,0.3,0.1,0.4c0.1,0.1,0.1,0.1,0.1,0.2
		c0,0,0,0,0.1,0C6.7,73.9,6.7,73.4,6.5,73.4z"/>
	<path id="XMLID_944_" style="fill:#FFFFFF;" d="M3.6,42.2L3.6,42.2c-0.1,0.1-0.1,0.2-0.1,0.3c0.2,0,0.5,0,0.4-0.3
		C3.8,42.2,3.7,42.2,3.6,42.2C3.6,42.2,3.6,42.2,3.6,42.2z"/>
	<path id="XMLID_943_" style="fill:#FFFFFF;" d="M3.3,58.3c0.1,0.1,0.1,0.4,0.3,0.3c0-0.1,0-0.2,0.1-0.2C3.6,58.3,3.5,58.1,3.3,58.3
		z"/>
	<path id="XMLID_942_" style="fill:#FFFFFF;" d="M5.5,51.3C5.5,51.3,5.5,51.3,5.5,51.3c-0.1,0.1-0.1,0.2,0,0.3
		C5.5,51.4,5.5,51.4,5.5,51.3z"/>
	<polygon id="XMLID_941_" style="fill:#FFFFFF;" points="76.1,78.8 76.1,78.8 76.1,78.8 	"/>
	<path id="XMLID_940_" style="fill:#FFFFFF;" d="M75.3,8.3c0.1-0.1,0.1-0.1,0-0.1L75.3,8.3C75.3,8.3,75.3,8.3,75.3,8.3z"/>
	<path id="XMLID_939_" style="fill:#FFFFFF;" d="M77.1,5.8L77.1,5.8c-0.1,0-0.2,0-0.3,0.1c0,0,0,0,0,0c0,0,0,0.1,0,0.1
		C77,6,77.1,5.9,77.1,5.8z"/>
	<polygon id="XMLID_938_" style="fill:#FFFFFF;" points="52.1,85.9 52.1,85.9 52.1,85.9 	"/>
	<path id="XMLID_937_" style="fill:#FFFFFF;" d="M72,81.4l-0.1,0.1c0,0.1,0,0.2,0.1,0.2c0.1-0.1,0.1-0.1,0.2-0.2l0,0
		C72.1,81.5,72.1,81.4,72,81.4z"/>
	<path id="XMLID_936_" style="fill:#FFFFFF;" d="M69.4,82.6c-0.1,0.1-0.2,0.1-0.3,0.2l0,0c0,0.1,0.1,0.1,0.2,0.1
		C69.3,82.8,69.5,82.7,69.4,82.6C69.5,82.6,69.5,82.6,69.4,82.6C69.4,82.6,69.4,82.6,69.4,82.6z"/>
	<path id="XMLID_935_" style="fill:#FFFFFF;" d="M62.1,4.1c0,0,0.1,0,0.1,0c0.1-0.1,0.3-0.1,0.1-0.3c-0.3,0-0.3,0.5-0.4,0
		c-0.2,0.1-0.3,0.2-0.4,0.4c0.1,0,0.2,0,0.2,0C61.8,4.2,61.9,4.2,62.1,4.1z"/>
	<path id="XMLID_934_" style="fill:#C4C4C4;" d="M2.5,50.4c0.1-0.4-0.7-0.2-0.6,0.1C2.1,50.5,2.2,50.6,2.5,50.4z"/>
	<path id="XMLID_933_" style="fill:#C4C4C4;" d="M2.2,51.8c0.1,0,0.2-0.1,0.3-0.1c0-0.1-0.1-0.2-0.1-0.3c-0.1,0-0.2,0.1-0.3,0.1
		C2.2,51.7,2.2,51.7,2.2,51.8z"/>
	<path id="XMLID_932_" style="fill:#C4C4C4;" d="M14.5,49.1c0.1,0.1,0.8,0,0.8-0.3C14.8,49.2,14.5,48.5,14.5,49.1z"/>
	<path id="XMLID_931_" style="fill:#C4C4C4;" d="M93.3,22.9c-0.1-0.2-0.1-0.5-0.4-0.3c0,0.1,0.1,0.2,0.1,0.3
		C93.1,22.8,93.2,22.9,93.3,22.9z"/>
	<path id="XMLID_930_" style="fill:#C4C4C4;" d="M59.7,70.8c0-0.1-0.1-0.2-0.1-0.3c-0.1,0-0.2,0.1-0.3,0.1c0,0.1,0.1,0.2,0.1,0.3
		C59.5,70.8,59.6,70.8,59.7,70.8z"/>
	<path id="XMLID_929_" style="fill:#C4C4C4;" d="M56.7,85.9c0.1,0,0.1-0.1,0.1-0.2c-0.2,0-0.3-0.1-0.5-0.1c0,0.1,0.1,0.3,0.1,0.4
		C56.5,85.9,56.6,85.9,56.7,85.9z"/>
	<path id="XMLID_899_" style="fill:#C4C4C4;" d="M21.9,89.9c0.1,0,0.2,0,0.2,0c0.1,0,0.1,0,0.2,0c0,0,0.1,0,0.1-0.1
		c0.1-0.1,0-0.2-0.1-0.3c-0.1-0.1-0.3-0.1-0.4-0.1c-0.2-0.4-0.7-1.3-1.4-1c-0.1-1.1-1.2-1.6-1.8-2.3c0-0.1,0-0.2,0-0.3
		c0-0.1-0.1-0.2-0.2-0.2c-0.1,0-0.2,0.1-0.2,0.2c0,0.1,0,0.1,0,0.2c-0.2,0.1-0.3,0.1-0.5,0.2c-0.1-0.3-0.2-0.2-0.3-0.5
		c0.1-0.2,0.4-0.3,0.6-0.2c0-0.4-0.3-0.3-0.4-0.6c-0.6,0.5-0.4-0.1-1,0.1c0.3-0.2-0.1-0.7,0.1-1c-0.8-0.5-1.2-1.8-1.9-2.5
		c-0.1-0.2-0.6,0.4-0.8-0.2c-0.4,0-0.2,0.4-0.3,0.5c-0.4-0.4-0.1-0.9,0.2-1.2c-0.1-0.2-0.1-0.3-0.3-0.2c0-1.1-1.1-2.7-1.9-3.4
		c-0.5-1.1-0.4-2.4-1.7-1.9c0-0.1,0.1-0.2,0.2-0.2c0.3-0.2-0.4-0.1-0.3-0.5c0.2,0,0.4-0.2,0.4,0c0.1-1.4-1.5-3.6-1.7-4.9
		c-0.5-0.6-1.2-1-1.2-1.6c0.2-0.1,0.2,0.3,0.5,0.1c-0.3-1-0.2-2.6-1.3-3c-0.1-0.3,0.6-0.2,0.6-0.5c-0.3-0.5,0-1.1-0.5-1
		c0-2.9-1.2-5.6-0.8-8.1c-0.1-0.2-0.5,0.1-0.6-0.1c0-0.3,0-0.6,0.1-0.9c0.2,0,0.3,0.1,0.5,0.1c-0.2-0.5,0.1-1.2,0-1.6
		c0-0.2-0.4-0.4-0.4-0.3c0-0.3,0.3-0.5,0.3-0.7c0.1-0.1,0.1-0.1,0.1-0.2c0-0.1,0-0.3,0-0.4c0-0.1,0-0.2,0-0.3c0-0.2-0.1-0.3-0.2-0.3
		c0-0.1-0.1-0.1-0.2,0c0.3-1,0.9-2.7,0.1-3.5c0.2-0.1,0.2-0.3,0.5-0.3c-0.5-1,0.4-1.3,0.4-2c-0.2-0.3-0.6-0.1-0.7-0.6
		c0.3-0.1,0.5-0.5,0.7-0.1c0.2-0.9,0.6-1.8,0.2-2.7c0.2-0.1,0.3,0,0.4,0c0.1-0.8,0.5-1.4,0.6-2.2c0.1,0,0.1-0.1,0.2-0.1
		c0.2-0.2,0.2-0.5,0.2-0.6c0-0.1,0-0.1,0-0.1c0.1-0.1,0-0.3,0-0.4c0.4-0.8,0.7-1.5,0.8-2.5c0.5-0.3,0.4-0.8,0.8-1.1
		c-0.3-2,1.5-2.5,2-4.2c-0.1-0.1-0.2-0.1-0.3,0c-0.1-0.2,0.3-0.3,0-0.3c0.5-0.1,0.9-0.7,1.2-1.3c-0.4,0-0.4-0.3-0.4-0.7
		c0.7,0.6,1.8-1.3,1.8-1.5c0-0.3-0.6-0.2-0.3,0.1c-0.7-0.4,0.2-0.4,0.1-0.9c0.5-0.2,0.1,0.2,0.1,0.4c0.7-0.3,0.8-0.9,1.3-1.3
		c-0.1-0.3-0.2-0.2-0.3-0.5c0.2-0.1,0.4-0.2,0.5,0.1c0-0.3,0.2-0.6,0.1-1c0.3-0.1,0.6-0.2,0.7,0c0.3-0.8,1.4-1.3,1.5-2.3
		c0.8-0.2,1.4-1.3,2.1-1.9c-0.1-0.1-0.3-0.1-0.4,0c0.4-0.5,1.5-0.3,1.5-1.4c0.6-0.2,1-0.5,1.2-0.8c-0.1-0.3-0.3,0.3-0.5-0.1
		c0-0.7,0.3-0.8,0.8-1c0.1,0,0.1,0,0.2,0c0,0.1,0.1,0.2,0.1,0.3c0.2-0.2,0.1-0.2,0.1-0.4l0.4-0.1c0,0,0.1,0,0.1-0.1
		c0.4,0,0.6,0.1,0.8-0.4c-0.2-0.3-0.3-0.4-0.3-0.8c0.2,0.1,0.4,0,0.3-0.3c0.4,0.4,0.7-0.1,1.2,0.2c0.5-0.2,0.4-0.6,0.5-1
		c0.2,0,0.2,0.3,0.3,0.5c0.8-0.6,2.3-1.2,2.3-1.8c0.4-0.1,1.7-0.4,1.8-1.2c0.4-0.3,0.6,0,0.9,0c0.4-0.3,1.1-0.3,0.9-0.9
		c0.4,0,0.3-0.1,0.7,0c0.8-0.6,2.6-0.8,2.7-1.7c0.7,0.6,1-1,2.2-1.1c0.1,0.3,0.4,0,0.4,0.4c1.6-0.7,3.8-1.1,5.1-1.5
		c0.1,0,0.1-0.2,0-0.1c0.3-0.1,2.8-0.1,2.5-0.6c0.6,0.2,1.5-0.2,2.2,0c0.2-0.1,0.2-0.3,0.1-0.6c0.3,0.6,1.2,0.5,1.4-0.1
		c1,0.7,1.7-0.2,2.9,0.1c0-0.2-0.2-0.5,0.2-0.8c0.5,0.1,0.7,1.1,1.4,0.8c0.2-0.1,0-0.4,0.3-0.4c0,0.2,0.1,0.2,0.3,0.2c0,0,0,0,0,0.1
		c0.2,0.2,0.6,0.3,0.9,0.3c0,0,0,0,0,0c0.1,0,0.1-0.1,0.2-0.1c0.2,0,0.5,0,0.8-0.1c1.2,0.5,2.8,0.3,4.3,0.2c0,0,0,0,0.1-0.1
		c0,0.1,0,0.1,0,0.2c0,0.3,0.2,0.6,0.5,0.6c0.1,0,0.3,0,0.5,0c0,0,0.1,0,0.1,0c0.1,0,0.2-0.2,0.3-0.3C63.3,5,64,5.5,64.5,5.1
		c0.1,0.4,1.3,0.8,1.7,0.4c0.1,0.5,1,0.2,1.4,0.7c0.3-0.1-0.3-0.3,0.1-0.5c0.2,0,0.3,0,0.5,0.1c0,0,0,0,0,0.1l0,0.3c0,0,0,0,0,0
		c-0.1,0-0.1,0-0.2,0c0.1,0.1,0.2,0.1,0.3,0.1c0,0.2,0.2,0.3,0.3,0.3c0.1,0,0.1,0,0.2,0c0,0,0.1,0,0.1,0c0.1,0,0.2,0,0.3,0
		c0.1,0,0.1-0.1,0.2-0.1l0.1-0.1l0-0.1c0-0.1,0-0.2,0-0.3c0,0,0,0,0,0C69.6,6,69.8,6.1,70,6.1c-0.3,0.4-0.3,0.5,0.1,0.8
		c0.5-1.1,1.5,1.5,2.4,0.3C73,8,73.5,8.5,74.6,8c0.1,0.1,0.1,0.1,0.2,0.2l0.1,0.2c0,0.1,0.2,0.2,0.3,0.1c0.1,0,0.1-0.1,0.2-0.2
		c0.4,0.4,0.9,0.5,1.1,1.2c0.2-0.1,0.7-0.1,0.6-0.4c0.2,0.3,1.2,0.7,0.8,0.9c1.3,0.6,2.2,1.9,3.9,1.7c0.3,0.8,0.6,1.5,1.4,1.2
		c0.6,0.5,0.6,1.4,1.3,1.6c0.1,0,0.4-0.2,0.5-0.2c0.2,0.1,0.3,0.7,0.7,0.2c0.2,0.3-0.2,0.3-0.3,0.5c0.3,0.1,0.6,0.5,0.9,0.6
		c0,0,0,0,0,0l0.1,0.1c0.1,0.1,0.2,0.3,0.3,0.4c0.1,0.1,0.2,0.2,0.4,0.2c0.4,0.8,1.4,1.5,2.1,1.1c0.2,0.9,0.6,1.8,1.2,1.3
		c0,0.2-0.1,0.3-0.3,0.4c0.9,1.2,1.9,2.1,2.9,3.2c0.6-0.3,0.5-0.2,1.2-0.4c0.1,0.2,0,0.3,0,0.5c-0.1,0-0.1,0-0.2,0l-0.3,0.1
		c-0.2,0.1-0.3,0.3-0.2,0.5c0.1,0.2,0.3,0.3,0.5,0.2l0.2-0.1c0,0.1,0,0.2,0.2,0.4c0.1,0.2,0.2-0.1,0.4-0.1c0.1,0.2,0.1,0.5,0.4,0.3
		c-0.1,0.2-0.5,0.4-0.3,0.7c0.4,0.3,1,0.6,1.3,1v-5.9c-0.1-0.1-0.1-0.2-0.2-0.2c-0.4-0.3-1.1,0-1.4-0.5c0-0.2,0.5-0.2,0.4-0.4
		c-0.3-0.1-0.3-0.5-0.5-0.7c-0.3,0.1-0.6,0.2-0.7,0c-0.3-0.4,0.2-0.5,0-0.9c-0.5-0.3-1-0.7-1.4-1.4c-0.3,0-0.6,0.1-1-0.2
		c-0.5-1.7-1.9-1.4-2.6-2.6c-0.2,0-0.5,0.2-0.6,0.1c0.3-0.1,0.2-0.2,0.5-0.3c-0.5-1.1-2-0.9-2.1-1.9c-1,0.5-0.6-0.7-1.3-0.8
		c-0.3,0.2-0.4,0.3-0.6,0.1c0,0,0.1-0.1,0.1-0.1c0.1,0,0.2-0.2,0.2-0.3c0-0.1-0.2-0.2-0.3-0.2c-0.1,0-0.3,0.1-0.3,0.2
		c-0.3-0.3-0.8-0.4-0.7-1c-0.5,0-0.8-0.4-1.1-0.8c-0.5,0.1,0,0.6-0.3,0.7c0-0.9-0.8-0.1-1-0.5c0-0.1,0-0.2,0-0.3L81,7.8
		c0.1,0,0.2,0,0.2,0c0.1,0,0.1-0.1,0.2-0.2c0.1-0.2,0-0.3-0.1-0.4L80.9,7c-0.1,0-0.2,0-0.2,0c-0.7-0.5-1.3,0-2.2-0.6
		c0.2-0.3-0.2-0.3-0.3-0.8c-0.3,0-0.4-0.1-0.7,0l-0.1-0.1c0.1,0,0.1-0.1,0.1-0.1c-0.1,0-0.1,0-0.2,0c0,0-0.1-0.1-0.2,0
		c0,0-0.1,0-0.1,0c0,0-0.1,0-0.1,0.1c0,0-0.1,0.1-0.3,0.1c-0.2-0.6-1.5-0.1-1.1-0.6c-0.2,0-0.3,0.1-0.3-0.2c-0.4,0-0.7,0.7-1,0.4
		c-0.1-0.4,0.5-0.4,0.3-0.8c-0.5-0.5-1.9-0.3-2.7-1c-0.7-0.6-1.2-0.5-1.9-0.1c-0.3-0.4-0.1-0.3-0.3-0.8c-0.6,0.4-1.3-0.6-1.4,0.1
		c-0.3-0.3,0-0.5-0.5-0.6c-0.1,0.2,0,0.6-0.2,0.8c0-0.5-0.3-0.2-0.4-0.4c0.1-0.1,0.2-0.3,0.1-0.5c-0.6,0-1.3-0.5-2-0.4
		c-0.3,0-0.5,0.5-0.8,0.1c0.2-0.1,0.3-0.1,0.2-0.3c-0.3,0.1-0.9-0.3-0.9,0c0.3-0.1,0,0.5-0.3,0.5c-0.3-0.4-0.1-0.3-0.3-0.8
		c-0.9,0-1.8-0.5-2.3,0.1c-0.2-0.5-0.8-0.5-1.2-0.2c-0.7,0-1.3-0.5-2-0.5c0,0,0,0,0-0.1c0,0-0.1-0.1-0.1-0.1C57.5,0,57.3,0,57.1,0
		C57,0.1,56.9,0.3,57,0.5c0,0.1,0.1,0.1,0.2,0.2c-1.1,0-1.5,0-2.3-0.4c-0.4,0.2-0.2,0.7-1,0.8c-0.2-0.1-0.3-0.3-0.4-0.6
		c-0.3,0.1-0.3,0.3-0.5,0.4c-0.1-0.2-0.3-0.4-0.4-0.5c-0.1-0.1-0.1-0.1-0.2-0.1c-0.1-0.1-0.2-0.1-0.3-0.1l0,0c-0.2,0-0.5,0-0.6,0
		c-0.3,0-0.5,0.1-0.6,0.3c-0.1,0-0.2,0.1-0.2,0.3c0.3,0.5-0.9,0-1.2,0.6c-0.2-0.1-0.3-0.3-0.2-0.5c-0.8,0.6-1.4-0.4-2,0.5
		c0-0.2,0.1-0.3,0.1-0.5c-1.3-0.1-1.4,0.8-2.1,1c-0.1-0.2,0.3-0.2,0.1-0.5c-0.4,0.4-0.4-0.3-0.7,0c-0.2,0.4-1.2,0.5-1.9,0.4
		c0,0.3-0.3,0.5-0.5,0.7c-0.4-0.2-0.8-0.3-1.4,0.1c-0.1-0.1-0.5-0.6-0.5-0.1c0.1,0,0.2,0.1,0.2,0.2c-0.3,0.1-0.6,0.2-0.9,0.3
		c0-0.1-0.1-0.3-0.1-0.4c-1.3,0.5-3,0.8-3.1,1.8c-0.3,0.1-0.9,0.2-0.7-0.5c-1.2,0.3-0.8,0.5-1.2,1.1c-0.1-0.3-0.2-0.5-0.1-0.7
		c-0.4,0.4-1.2,0.4-0.5,0.7c-0.5,0.4-0.5-0.3-0.9-0.1c-1,0.9-2.9,1.1-3.3,1.9c0.2,0,0.5-0.1,0.6,0.4c-0.6,0.2-0.8-0.3-1.3-0.1
		c0.2,0.5-0.7,0.5-0.7,0.8C28.5,8,29,7.8,29.3,8c0,0.2-0.1,0.3-0.2,0.3c-0.5-0.1-1-0.1-1.4-0.5c-0.5,0.3-0.5,0.6-1.2,0.6
		c-0.1,0.3,0.1,0.2,0.2,0.5c-0.3,0.5-0.9,0.1-1.3,0.3c-0.1,0-0.3,0-0.4,0c-0.1,0.1-0.2,0.1-0.3,0.2c-0.2,0.1-0.3,0.3-0.3,0.4
		l-0.2,0.1C24,10,23.9,10.2,24,10.4c0,0,0,0,0,0.1c0,0.1,0,0.1,0,0.2c-0.9,0.4-1,0.1-1.9,0.8c-0.1,0.5,0.1,0.6-0.4,1
		c-1.1-0.2-2,1.1-2.7,1.9c-0.1,0-0.2,0-0.3,0c-0.2,0.1-0.4,0.2-0.6,0.6c0,0,0,0.1,0,0.1c-0.1,0.3,0,0.7-0.5,0.8c0,0-0.1-0.1-0.1-0.1
		c-0.4-0.1-0.8,0.3-0.9,0.7c0,0,0,0,0,0.1c-0.2,0.3-0.2,0.7,0.1,0.7c0,0.4-0.4,0.6-0.9,0.7c0-0.1-0.1-0.3-0.1-0.4
		c-0.5,0.3-0.9,0.7-0.8,1.3c0.1,0.3,0.4,0,0.4,0.4c-0.1,0-0.1,0.1-0.2,0.1c0,0,0-0.1,0-0.1l0-0.1c-0.1-0.1-0.1-0.3-0.2-0.4
		c0,0,0-0.1-0.1-0.1c-0.1-0.1-0.3-0.1-0.5,0c-0.1,0.2-0.3,0.4-0.3,0.5c0,0,0,0,0,0.1c-0.4,0.4-0.3,1.2-0.8,1.1c0,0.4,0,0.7,0.4,0.7
		c-0.1,0.1-0.3,0.1-0.2,0.2c0.1,0,0.3-0.1,0.3,0C13,22,13,21.1,12.6,21.1c0.3,0.4,0,0.5-0.4,0.6c0.3,0.5,0.2,0.4,0.3,0.9
		c-0.5,0-0.3,0.4-0.5,0.6c-0.4,0.3-0.6,0-1.1,0.2c-0.1,0.2,0,0.5,0,0.7c0.1,0.2,0.5-0.2,0.6,0.1c-0.8,0.3-0.9,1-1.9,1.2
		c0,0.2,0.2,0.5,0.1,0.6c-0.9,0.3-0.6,1.1-1.2,1.4c0.1,0.2,0.2,0.3,0.2,0.4c-0.1,0.1-0.1,0.3-0.1,0.4c0,0.1,0,0.2,0.1,0.3
		c0,0,0,0-0.1,0c0,0.4,0.3,0.9,0.2,1.1c-0.1,0-0.3,0.1-0.4,0.1c-0.1-0.2-0.2-0.4-0.2-0.6c-1.5,0.2-0.3,1.7-1.5,2
		c0.1,0.5,0.6,0,0.6,0.5c-1,0.3-1.1,1-1.1,1.5c0-0.1,0-0.1,0.1-0.1c0.2,0.4,0.2,0.7,0,0.9c-1-0.3-1.2,0.9-1.3,1.6
		c0.2,0.1,0.5-0.1,0.5,0.3c-0.4,0.5-0.4,1.2-1.2,1.1c0,0.4-0.2,1,0.4,1c-0.3,0.1-0.6,0.2-0.6,0.5c0.2,0.1,0.4,0.4,0.5,0.7
		c-0.8,0.1-0.3,0.3-1,0.4c-0.1,0.8-0.4,1.6-0.6,2.4c-0.1,0-0.2,0.1-0.2,0.2l0,0.1c0,0.1-0.1,0.2-0.1,0.3c0,0.1,0,0.3,0.1,0.4
		c0,0.4,0.2,0.7,0.5,1c-0.3-0.1-0.4,0.6-0.7,0.8c0.1,0,0.3-0.1,0.3,0c-0.4,0.4-0.2,1.1-0.6,1.5c0,0.4,0.3,0.2,0.4,0.4
		c-1.2,0.2,0,1.5-0.8,1.9c0.2,0.9,0.4,1.3,0.7,1.9C3,50.2,3,50,3.3,50.3c-0.3,0.2-0.4,0.2-0.6,0.5h0c0,0,0,0,0,0
		c-0.1-0.1-0.2-0.1-0.3,0c-0.1,0.1-0.1,0.2,0,0.3c0,0,0.1,0.1,0.3,0.1c0,0.5,0.3,1.1-0.2,1.3c0.3,0.5,0.2,0.4,0.3,0.9
		c-0.6,0.1-0.4,0.6-0.2,1.1c-0.4-0.1-0.2,0.1-0.7,0.1C2,54.9,1.8,55,2,55.4c0.4-0.3,0.5,0.1,0.7,0.2c-0.3,0.3-0.2,0.8-0.7,1
		c0.5,1,0.7,1.8,0.2,2.7c0.4-0.1,0.5,0.5,0.2,0.6c0.3-0.1,0.4,0.2,0.7,0.2c-0.3,0.5-1,1.2-0.1,1.6c-0.1-0.3,0.4,0,0.4,0.3
		c-0.3-0.2-0.2,0.2-0.6,0.2c0.4,0.4,0,0.2,0.1,0.7C3.5,63.2,3,64.6,4,65.1c-0.2,0.1-0.3,0.2-0.2,0.4c-0.1,0.1-0.1,0.1-0.2,0.1
		c-0.2,0.1-0.3,0.3-0.3,0.5c0.1,0.2,0.3,0.3,0.5,0.3c0,0,0,0,0,0c0.1,0,0.2-0.1,0.4-0.2c0,0,0,0,0.1-0.1c0.1,0,0,0.1-0.1,0.2
		c-0.1,0.3,0.4,0.9,0.3,1.2c0,0-0.1-0.1-0.1-0.1c-0.2-0.2-0.5-0.2-0.7,0c-0.2,0.2-0.2,0.5,0,0.7c0.1,0.1,0.1,0.1,0.2,0.2
		c0.1,0.1,0.2,0.2,0.3,0.2c0.4,1.2,0.9,1.8,1,2.9c0.2,0,0.5-0.2,0.6-0.1c-0.4,0.1-0.7,0.3-0.2,0.7c0.3-0.2,0.1-0.2,0.4-0.4
		C6.2,71.9,5.6,72,6,72.6c-0.2,0.1-0.2,0.2-0.4,0.1c0.2,0.2,0.1,0.9,0.5,0.9c0,0.2,0.1,0.5,0.2,0.6c0,0,0.1,0,0.1,0.1
		c0.4,0.9,0.8,2.2,1.3,3.3c0.8-0.2,0.5,0.8,1.1,0.6c-0.2,0.2-0.3,0.4-0.3,0.7c0.5,0,0.3,0.6,0.5,0.8c0,0.4,0.2,0.7,0.5,0.9l0,0l0,0
		c0.1,0,0.1,0,0.2,0c0,0,0.1,0,0.1,0c0.2,0.4,0.6,0.5,0.9,1c-0.1-0.3,0.4-0.2,0.4,0c-0.2,1.2,0.3,2.7,1.5,2.8c0,0-0.1,0-0.1,0.1
		c-0.1,0.1-0.2,0.2-0.2,0.4l0,0.1l0,0.1c0,0.1,0.1,0.3,0.1,0.4l0,0.1c0.1,0.2,0.3,0.3,0.5,0.2l0,0c0.2-0.1,0.3-0.3,0.2-0.5l0-0.1
		c0,0,0,0,0,0c0.1-0.1,0.2-0.2,0.4-0.2c0,0.4,0.4,0.3,0.4,0.7c-0.3,0.2-0.4,0.3-0.8,0.3c0.2,0.4,0.5,0.7,0.8,1
		c0.2-0.1,0.3-0.2,0.3-0.3c0.1,0.7,0.4-0.1,0.7,0.3c-0.2,0.1-0.3,0.1-0.5,0.2c0.1,0.4,0.3,0.9,0.6,0.9c-0.1-0.3,0.5-0.2,0.6-0.1
		c0,0.2-0.1,0.3,0.1,0.6c0.4,0.1,0.7,0.1,1.1,0.2c-0.1,0.3-0.5,0.5-0.2,1.1c0.3-0.1,0.4-0.1,0.6,0L21.9,89.9
		C21.9,90,21.9,89.9,21.9,89.9z M76.8,5.9c0.1,0,0.2-0.1,0.3-0.1l0,0.1C77.1,5.9,77,6,76.8,6C76.8,6,76.8,5.9,76.8,5.9
		C76.8,5.9,76.8,5.9,76.8,5.9z M75.3,8.3C75.3,8.3,75.3,8.3,75.3,8.3l0-0.1C75.3,8.2,75.4,8.2,75.3,8.3z M61.9,3.8
		c0.2,0.5,0.1,0,0.4,0c0.2,0.2,0,0.3-0.1,0.3c0,0-0.1,0-0.1,0c-0.2,0-0.3,0-0.3,0c-0.1,0-0.2,0-0.2,0C61.6,4.1,61.8,3.9,61.9,3.8z
		 M58.3,1.6c-0.2,0-0.4-0.1-0.4-0.4C58.2,1.1,58.4,1.4,58.3,1.6z M55.6,3.9c0,0-0.1,0-0.1-0.1c0,0,0,0-0.1,0
		C55.5,3.8,55.5,3.8,55.6,3.9z M52,1.4L52,1.4c0.1,0,0.1,0,0.1,0c0,0,0,0,0,0.1c-0.1,0.1-0.2,0.1-0.3,0.1c-0.1-0.1-0.2-0.2-0.2-0.2
		C51.7,1.3,51.9,1.4,52,1.4z M32.5,6.3c0.2,0.5-0.8,0.5-0.8,0.1C32.1,6.3,32.1,6.7,32.5,6.3z M25.6,10.2c0,0.1-0.1,0.1-0.2,0.1
		C25.5,10.3,25.6,10.2,25.6,10.2z M23.2,14.8l-0.4,0.1c0-0.2,0.1-0.3,0-0.5C23,14.4,23.2,14.6,23.2,14.8z M18.8,14.9
		C18.8,14.9,18.9,14.9,18.8,14.9c0,0.1,0,0.2,0.1,0.2c0,0.3-0.3,0.2-0.4,0.1C18.7,14.9,18.8,14.9,18.8,14.9z M17.4,16.3
		c0.1,0,0.1,0,0.2-0.1c-0.1,0.2-0.3,0.3-0.5,0.3C17.2,16.4,17.3,16.3,17.4,16.3z M14.6,19.6C14.6,19.6,14.6,19.6,14.6,19.6
		C14.6,19.7,14.6,19.7,14.6,19.6C14.5,19.7,14.6,19.6,14.6,19.6z M9.8,28.3C9.8,28.3,9.8,28.4,9.8,28.3C9.8,28.4,9.8,28.4,9.8,28.3
		C9.8,28.3,9.8,28.3,9.8,28.3C9.8,28.3,9.8,28.3,9.8,28.3z M7.7,38c0,0.1,0,0.2,0,0.3c0,0,0,0.1,0,0.1C7.6,38.3,7.6,38,7.7,38z
		 M3.6,58.6c-0.2,0-0.2-0.2-0.3-0.3c0.2-0.1,0.3,0,0.3,0.2C3.6,58.4,3.6,58.5,3.6,58.6z M3.5,42.5c0-0.1,0-0.1,0.1-0.2l0-0.1
		c0,0,0,0,0,0c0.1,0,0.2,0,0.3,0C4,42.4,3.7,42.5,3.5,42.5z M5.3,49.3c0-0.2,0.1-0.4,0.1-0.6c0.1,0,0.3,0.1,0.4,0
		C5.6,48.9,5.6,49.2,5.3,49.3z M5.5,51.3C5.5,51.3,5.5,51.3,5.5,51.3c0,0.1,0,0.2,0,0.3C5.4,51.5,5.5,51.4,5.5,51.3z M6.7,74
		c0-0.1,0-0.2-0.1-0.2c-0.1-0.1-0.1-0.2-0.1-0.3c0,0,0-0.1,0-0.1C6.7,73.4,6.7,73.9,6.7,74C6.8,74,6.7,74,6.7,74z M9.9,80.1
		c0,0-0.1,0-0.1,0c0,0-0.1,0-0.1,0c-0.2-0.1-0.3-0.4-0.2-0.5c0.1-0.1,0.1-0.2,0.4-0.3c0.1,0.3,0.2,0.2,0.3,0.5
		C9.9,79.9,9.9,80,9.9,80.1z"/>
	<path id="XMLID_898_" style="fill:#C4C4C4;" d="M95.9,26.5v-0.1C95.9,26.4,95.9,26.5,95.9,26.5C95.9,26.5,95.9,26.5,95.9,26.5z"/>
	<path id="XMLID_888_" style="fill:#C4C4C4;" d="M23.5,43.1C23.5,43.1,23.6,43,23.5,43.1c0.3-0.2,1-0.6,0.8-1.3c0,0,0,0,0,0
		c0.1-0.2,0.2-0.5,0.2-0.7c0,0,0-0.1,0-0.1c0.1-0.2,0.2-0.4,0.3-0.6c0,0,0,0,0,0c0,0,0.1,0,0.1-0.1c0.3-0.2,0.4-0.6,0.4-0.8
		c0-0.1,0-0.2,0-0.2c0.1-0.3,0.2-0.6,0.2-0.9c0,0,0,0,0,0c0.1,0,0.1-0.1,0.2-0.1c0.1-0.1,0.2-0.2,0.3-0.3l0.1-0.1l0-0.2
		c0-0.2,0-0.4-0.1-0.6c0.1,0,0.2,0.1,0.3,0c0.1-0.6,0.8-1,1.1-1.5c0.1-0.2-0.2-0.4-0.1-0.6c0.1-0.1,0.4,0.1,0.5-0.2
		c0.1-0.2-0.4-0.5-0.1-0.7c0.1,0.1,0.4,0.1,0.6,0.1c0.1-0.5,0.2-1.4,0.8-1.3c0-0.3-0.1-0.6,0-0.7c0.3,0.2,0.4,0.4,0.7,0
		c-0.2-0.3-0.3-0.6-0.3-0.8c0.2,0,0.5-0.1,0.9,0c0.2-0.2,0.5-0.5,0.4-0.8c0.1-0.1,0.2-0.2,0.2-0.3l0,0c0-0.1,0-0.1,0-0.2
		c0.1,0,0.2,0.1,0.5,0.1c-0.2-0.7,0.5-0.6,0.9-0.7c0.3-0.3-0.3-0.6-0.1-0.7c0.4-0.1,0.6,0,1-0.1c0,0,0-0.1,0-0.1c0.1,0,0.1,0,0.2,0
		c0,0,0,0,0.1,0c0.4-0.2,0.6-0.5,0.6-0.9c0,0,0,0,0,0c0.3-0.2,0.6-0.3,0.8-0.4c0.2,0.1,0.4,0.2,0.6,0.1c0.1,0,0.1-0.1,0.2-0.1
		c0.1-0.1,0.2-0.2,0.4-0.2c0.3-0.1,0.4-0.4,0.3-0.7c1.3-0.9,3.1-1.5,3.9-2.6c0.1,0.1,0.1,0.3,0.2,0.2c-0.1-0.2,0-0.3,0.1-0.3
		c0.1,0,0.1,0.1,0.2,0c0.1,0,0.1,0,0.2,0c0.2-0.1,0.3-0.2,0.4-0.4c0,0.1,0.1,0.2,0.1,0.3c0.5-0.1,0.8-0.5,1-0.4
		c0.1-0.3-0.4-0.4,0.2-0.7c0.3-0.1,0.4,0.3,0.6,0.4c0.6-0.2,1.1-0.4,1.7-0.6c0-0.5-0.6-0.5-0.1-0.8c0.2,0.3,0.6,0.1,0.7,0.6
		c0.8,0,1.6-0.5,2.2-0.8c0.1,0.2,0.2,0.3,0.4,0.3c0.4-0.4,1.2-0.2,1.5-0.2c0.5,0,1.2-0.4,1.7-0.5c0,0,0.1,0.3,0.1,0.3
		c0.7,0,1.6-0.1,2-0.4c0,0,0,0,0,0c0,0.2,0.1,0.4,0.4,0.5c0.1,0.1,0.3,0.1,0.4,0c0.2-0.1,0.3-0.2,0.4-0.3c0,0,0,0,0,0c0,0,0,0,0,0
		c0.1,0,0.1-0.1,0.1-0.1c0.1,0,0.1,0,0.2,0l0,0c0,0,0,0,0,0c0,0.1,0,0.1,0.1,0.2c0.5-0.2,0.7,0.2,1.3-0.1c-0.1-0.2-0.2-0.4,0.1-0.5
		c0.2,0,0.3,0.4,0.5,0.6c0,0,0-0.3,0-0.3c0.2,0.1,0.2,0.4,0.5,0.6c0.5,0.2,1.2-0.1,1.8,0.2c-0.3-0.6,0.5-0.5,0.9-0.4
		c0.1,0.2,0.2,0.4,0.2,0.6c0.5-0.1,0.8,0.3,1.4,0.4c0.2,0,0.5-0.2,0.8-0.1c0.6,0.2,1.4,1.2,1.8,0.5c0.6,0.9,1.6,0.7,2.3,0.8
		c0.8,1.1,2.4,1.6,3.1,1.5c-0.2,0.5,1.9,1.6,2,1.6c-0.1,0,0-0.3,0-0.3c0.3-0.1,1-0.3,0.8-1c-1.1-0.8-2.6-1.4-3.9-2.1
		c-0.3-0.2-0.5-0.5-0.8-0.6c-0.2-0.1-0.5,0.1-0.7,0c-0.2-0.1-0.2-0.4-0.4-0.4c-0.5-0.1-1.5,0.3-1.3-0.3c-0.5-0.1-1.1,0.1-1.2-0.6
		c-1.3,0.1-2.3-1.3-3.6-0.5c-0.6-0.7-1.3-0.5-2.3-0.2c-0.3-0.8-1.3-0.9-1.8-0.5C57,19,56.5,19,56,19.2c-0.1,0.1,0,0.2,0,0.4
		c-0.1-0.1-0.2-0.1-0.3-0.2l-0.2,0c0,0,0-0.1,0-0.1c0-0.1-0.1-0.1-0.1-0.2l0-0.1l-0.1,0c-0.1,0-0.2-0.1-0.4-0.1l0,0l0,0
		c0,0-0.1,0-0.1,0.1c-0.2,0-0.4,0-0.5,0.1c-0.1,0-0.1,0.1-0.2,0.2c0,0,0,0-0.1,0c-0.1,0-0.2,0.1-0.3,0.2c-0.1-0.1-0.3-0.2-0.4-0.3
		c0,0.2,0.2,0.4,0,0.4c-0.4-0.1,0.1-0.5-0.3-0.5c-0.1,0.2-0.4,0.3-0.4,0.6c-0.3-0.1-0.8,0.1-0.8-0.6c-0.7,0.3-1.2,0.4-1.8,0.3
		c-0.1,0.2,0.1,0.5-0.3,0.5c-0.7,0.2-0.8-0.6-1.1,0.1c0.1-0.2,0-0.4-0.2-0.5c-1.9,0.4-3.1,0.9-4.1,1c0,0.2,0,0.3-0.1,0.5
		c0-0.1-0.1-0.2-0.1-0.3c-1.4,0.5-2,0.5-2.4,1.2c-0.1,0-0.2,0-0.3,0.1c0,0-0.1,0.1-0.1,0.1c0,0-0.1,0.1-0.1,0.1c0,0-0.1,0-0.1,0
		c-0.1-0.1-0.2-0.1-0.3-0.3c-0.3,0.1-0.5,0.2-0.8,0.3c0,0.2,0.2,0.4,0,0.4c-0.5-0.5-0.7,0.4-1,0.7c0,0-0.1-0.1-0.1-0.1
		c-0.1-0.1-0.3-0.1-0.4-0.1l-0.1,0c-0.2-0.1-0.4,0-0.5,0.2c-0.1,0.2,0,0.4,0.2,0.5c0,0,0.1,0,0.1,0c0.1,0,0.2,0.1,0.3,0.1
		c0,0,0,0,0,0c-0.1,0.2-0.5,0-0.7,0.3c-0.3-0.2-0.1-0.4-0.6-0.4c-0.1,0.8-1,0.6-1.5,0.9c-0.1-0.1-0.3-0.1-0.4,0l-0.1,0
		c-0.2,0.1-0.3,0.1-0.5,0.2c-0.2,0.1-0.3,0.4-0.3,0.6c-0.1,0.2-0.3,0.5-0.4,0.6c0,0-0.1-0.3-0.2-0.2c0,0,0.1,0.5,0.1,0.6
		c-0.2,0.4-1.4-0.9-0.3,0.3c0.2,0,0.2,0.1,0.2,0.1c0,0,0,0.1,0,0.1c0,0.1,0,0.1-0.1,0.2c-0.1-0.2-0.3-0.3-0.6-0.6
		c-0.6,0.4-1.6,1.1-1.3,1.6c-0.2,0.4-0.7,0.2-1,0.2c-0.1,0.4,0,0.6,0.1,0.8c0,0-0.1,0.1-0.1,0.1l0,0c-0.1,0.1-0.1,0.2-0.2,0.2
		c-0.2-0.1-0.2-0.3-0.1-0.5c-0.7,0.3-0.7,1-1.4,1.4c-0.2,0.2,0.1,0.3,0.1,0.4c0,0-0.1,0-0.1,0c-0.1,0-0.2,0-0.4,0
		c-0.2,0.1-0.3,0.3-0.3,0.5c0,0.2,0.2,0.3,0.3,0.3c-0.5,0.6-1.7,0.7-2,1.7c-0.1,0.5,0.7,0.4,0.4,0.6c-0.2,0.1-0.2-0.3-0.5-0.1
		c-0.7,0.9-1.1,1.9-1.8,2.8c0.1,0,0.2,0.1,0.3,0.1l0,0.1c0,0,0,0.1,0,0.2c0,0,0,0-0.1,0.1c0,0,0,0,0,0c-0.2-0.1-0.3-0.1-0.5-0.1
		c0,0.6-0.5,0.9-0.7,1.4c-0.2,0.1-0.4,0.3-0.4,0.6l0,0.3c0,0.1,0,0.1,0,0.2c-0.1,0.1-0.2,0.2-0.2,0.4c-0.1,0-0.2,0.1-0.2,0.1
		c-0.1,0.2-0.4,0.5-0.4,0.9c0,0.1,0,0.2,0.1,0.3c-0.1,0.4-0.2,0.7-0.4,1.1c0.1,0.3,0.4,0.4,0.7,0.4C23.1,43.1,23.3,43.1,23.5,43.1z
		 M26.3,35.6c0,0.1,0.1,0.2,0.1,0.3c-0.1,0-0.2,0.1-0.3,0.1c0-0.1-0.1-0.2-0.1-0.3C26.1,35.6,26.2,35.6,26.3,35.6z M24.6,39.2
		C24.5,39.2,24.5,39.2,24.6,39.2c0,0.1,0,0.1,0,0.2L24.6,39.2C24.5,39.2,24.5,39.2,24.6,39.2C24.5,39.2,24.5,39.2,24.6,39.2z
		 M23.6,41.1c0,0,0-0.1,0.2-0.2c0.1,0.1,0.1,0.1,0.2,0.2c0,0.1,0,0.2,0,0.3c-0.1,0-0.1,0-0.2,0c0,0-0.1,0-0.1,0c0,0,0,0-0.1,0
		C23.5,41.3,23.6,41.2,23.6,41.1z"/>
	<path id="XMLID_887_" style="fill:#C4C4C4;" d="M49.1,74.1c0,0.1-0.1,0.2-0.1,0.4C49.3,74.2,49.3,74.1,49.1,74.1z"/>
	<path id="XMLID_886_" style="fill:#C4C4C4;" d="M24.5,45.5c0.1,0,0.1,0.1,0.2,0.1c0.1,0,0.1,0.1,0.2,0.1c0.2,0.2,0.5,0.2,0.7,0.1
		c0.1-0.1,0.3-0.1,0.4-0.3c0,0,0,0,0,0l0,0c0.2-0.1,0.3-0.2,0.4-0.3c0.1-0.1,0.1-0.1,0.1-0.2c0.5-0.1,0.9-0.3,0.8-0.7
		c0.3,0,0.3,0.1,0.3,0.3c0.9-0.6,3-0.6,3.1-1.8c0,0,0,0,0,0c0.1-0.1,0.2-0.2,0.3-0.2l0,0c0,0,0.1,0,0.2,0c0,0.1,0,0.2,0,0.4
		c0,0-0.1,0.1-0.1,0.1c-0.1,0.1-0.2,0.2-0.1,0.3c0.1,0.1,0.2,0.1,0.3,0.1c0,0,0,0,0,0c0.1-0.1,0.2-0.2,0.3-0.3
		c0.1,0,0.2-0.1,0.3-0.1c0-0.1,0-0.2,0-0.3c0,0,0,0,0,0c0,0,0,0,0,0c0.1,0.1,0.1,0.1,0.2,0.2c0.3,0.2,0.7,0.2,1.1,0
		c0.2-0.1,0.5-0.2,0.7-0.4l0.2-0.1l0-0.3c0.6,0,1.3-0.3,2-0.5c-0.1-0.1-0.1-0.2-0.1-0.3c0.1,0,0.1,0,0.2,0c0.1,0,0.2,0,0.4-0.1
		c0,0,0,0,0,0c0,0,0.1,0,0.1-0.1c0.4,0.2,1-0.1,1.1-0.5c0.1,0.2,0.1,0.3,0.3,0.2c0.1,0,0.1-0.1,0.1-0.2c0,0,0,0,0.1,0
		c0,0,0.1,0,0.1-0.1c0.2-0.1,0.4-0.2,0.6-0.3c0,0,0.1,0,0.1-0.1c0.1,0.1,0.1,0.1,0.1,0.3c0.8,0,0.4-0.6,0.9-0.7
		c0.3,0.2,0.8,0.1,1.1,0c0.1,0,0.2,0.1,0.3,0c0,0,0,0,0,0c0,0,0.1,0,0.2,0c0.1,0,0.2,0,0.3-0.1c0.1,0,0.3-0.1,0.3-0.3
		c0,0,0-0.1,0-0.1c1.2-0.3,1.9-0.6,3.3-1.1c0,0,0-0.1,0-0.1c0.1-0.1,0.2-0.2,0.3-0.3c0.2,0.1,0.3,0,0.4-0.1c0.1,0.1,0.2,0.1,0.4,0.1
		l0.3,0c0.1,0,0.1,0,0.2,0c0.2-0.1,0.3-0.2,0.4-0.4c0.6-0.1,1.2-0.4,1.9-0.6c0.1,0.1,0.3,0.2,0.5,0.1c0,0,0.1,0,0.1-0.1l0.1-0.1
		c0.1-0.1,0.1-0.1,0.2-0.2c0,0,0.1,0,0.1,0c0.3-0.1,0.5-0.3,0.7-0.5c0-0.1,0.1-0.1,0.1-0.1c0,0,0,0,0,0c0.4,0.5,1-0.5,1.6-0.3
		c-0.1-0.3-0.3-0.3-0.4-0.5c0,0,0.1,0,0.1-0.1c0,0,0.1-0.1,0.1,0c0,0,0,0,0,0l0.1,0.2l0.3,0c0.2,0,0.3,0,0.5-0.1
		c0.2-0.1,0.4-0.2,0.6-0.3c0.2-0.2,0.4-0.3,0.5-0.2c0,0,0.1,0,0.1,0c0,0.1,0,0.2,0,0.3c0.8-0.3,1.5-0.5,2.3-0.8c0,0,0.1,0,0.1,0
		c0,0,0.1,0,0.1-0.1c0,0,0.1,0,0.1,0c0,0,0,0,0,0c0,0,0,0,0-0.1c0-0.1,0.1-0.1,0.3-0.2c0.2-0.1,0.4-0.1,0.5-0.3c0,0,0,0,0,0
		c0.1,0,0.2-0.1,0.3-0.1c0,0,0,0,0.1,0.1l0.1,0.1c0.1,0,0.1,0.1,0.2,0.1c0.1,0.1,0.2,0.1,0.4,0.1c0.1,0,0.1-0.1,0.1-0.1
		c0.1-0.1,0.1-0.4,0-0.5c-0.1-0.1-0.2-0.1-0.3-0.2l0,0c0-0.1,0-0.3-0.1-0.4c-0.2-0.1-0.6,0.1-1,0.2c0.1,0.1,0.1,0.2,0.1,0.3
		c-0.1,0-0.2,0-0.3,0.1c-0.1,0.1-0.2,0.1-0.3,0.1c-0.2,0.1-0.4,0.1-0.5,0.3c-0.1-0.1-0.2-0.1-0.3-0.1c-0.1,0.2,0.1,0.5-0.3,0.5
		c0.2-0.4,0.1-0.6-0.4-0.6c0,0.2,0.4,0.6,0.1,0.7c-0.3-0.2,0-0.5-0.5-0.6c0,0.3-0.5,0.3-0.8,0.4c0,0-0.1,0-0.1,0
		c-0.5-0.1-0.9,0.2-1.2,0.4c-0.1,0.1-0.2,0.1-0.3,0.2c-0.1-0.1-0.3-0.2-0.5-0.2c-0.3,0-0.7,0.1-0.9,0.3c-0.1,0.1-0.1,0.2-0.1,0.3
		c-0.3,0.1-0.6,0.2-1,0.3c0,0.1,0,0.1,0,0.2c0,0-0.1,0-0.1,0.1c0-0.1-0.1-0.2-0.2-0.3c-0.2-0.2-0.6-0.1-0.7,0.1
		c0,0.1-0.1,0.1-0.2,0.2c0,0-0.1,0-0.1,0l-0.1,0c-0.2,0-0.3,0.2-0.3,0.3c-0.4,0.2-0.7,0.5-1.4,0.4c0,0.2,0.2,0.4,0,0.4
		c0-0.1-0.1-0.3-0.1-0.4c-0.2,0.1-0.5,0.2-0.5,0.5c0,0,0,0,0,0l-0.3,0c-0.1,0-0.3,0.1-0.4,0.1c0,0,0,0,0,0c-0.2,0.2-0.5,0.3-0.6,0.4
		c-0.1,0-0.1,0-0.2,0.1c-0.1,0.1-0.2,0.2-0.3,0.3c-0.1,0-0.1,0.1-0.1,0.1c-0.2,0.1-0.4,0.1-0.1-0.3c-0.7-0.1-0.3,0.5-0.9,0.6
		c-0.1-0.2-0.2-0.4-0.3-0.5c-1.1,0.1-1.4,1-2,1c0,0.1,0.1,0.2,0.1,0.3c0,0-0.1,0.1-0.1,0.1c0,0,0,0-0.2,0c-0.1,0-0.2,0-0.2,0
		c0-0.2,0.3-0.4-0.1-0.5c-0.8,0.2-1.7,0.4-2.3,0.8c-0.1-0.1-0.3-0.1-0.4,0c-0.2,0.1-0.4,0.2-0.6,0.3c-0.1,0-0.4,0-0.6,0.1
		c-0.2,0.3,0.3,0.3,0,0.4c-0.2,0-0.4,0-0.6,0c-0.1-0.1-0.3-0.2-0.5-0.1c-0.1,0-0.1,0-0.2,0c-0.2,0-0.4,0.1-0.4,0.3
		c-0.7,0.1-1.3,0.6-2,0.9c-0.3,0-0.6,0.2-0.6,0.4C33,42,32.8,42.1,32.8,42c0,0-0.1,0-0.1,0c0-0.2-0.1-0.3-0.3-0.3
		c0,0.1,0,0.2-0.1,0.2c0,0-0.1-0.1-0.1-0.1c-0.2-0.1-0.5,0-0.6,0.2c0,0-0.1,0.1-0.1,0.2c0,0,0,0,0,0c0-0.1-0.1-0.1-0.2,0
		c-0.2,0-0.3,0-0.4,0c-0.1,0-0.1,0.1-0.2,0.1l0,0c-0.1,0.1-0.2,0.1-0.3,0.2c0,0-0.1,0.1-0.1,0.1c-1.2,0.2-2.3,0.9-3.6,1.2
		c0,0.3,0,0.6-0.2,0.8c0-0.3-0.2-0.5-0.5-0.5c-0.2,0-0.4,0.1-0.6,0.2c0,0,0,0-0.1,0c-0.4-0.2-0.9-0.1-1.1,0.2c0,0.1-0.1,0.1-0.1,0.2
		c-0.1,0-0.2,0-0.2,0c-0.1,0.2,0.1,0.6-0.3,0.7c-0.9-0.6-1.3,0.8-2,0.1c-0.3,0.7-0.9,0.4-1.8,0.6c-0.1,0.6-0.3,0.7-0.2,1.2
		c0.3-0.2,0.7-0.4,0.8-0.7c0,0.1,0.1,0.3,0.1,0.4c0.5-0.1,2.3-0.3,2.7-1.1C23.7,46.1,24.3,45.9,24.5,45.5z"/>
	<path id="XMLID_883_" style="fill:#C4C4C4;" d="M62.2,31.3c-0.4,0.1-0.4,0.4-0.6,0.6c-0.2-0.1-0.4,0-0.5,0c-0.1,0-0.1,0-0.2,0
		c-0.1,0-0.2,0-0.2,0.1c-0.3-0.1-0.7-0.1-0.9,0.3c0,0.3,0.2,0.2,0.3,0.4c0,0,0,0,0,0c0,0.1-0.1,0.3,0,0.4c0,0.1,0.1,0.2,0.3,0.2
		c0,0,0,0,0,0c0.1,0,0.2-0.1,0.2-0.3c0,0,0,0,0,0c0.2-0.1,0.2-0.3,0.3-0.5c0.1,0,0.3,0,0.4,0c0.1,0,0.2,0,0.2,0
		c0,0.1,0.1,0.2,0.1,0.3c0.4,0,0.9-0.2,1.5-0.4c0.1,0.1,0.2,0.2,0.4,0.2c0.2,0,0.4,0,0.6-0.1c0.3-0.1,0.5-0.3,0.6-0.5l0-0.1l0,0l0,0
		c0.2-0.1,0.6-0.2,0.8-0.4c0,0,0,0.1,0,0.1c0.1,0,0.2-0.1,0.4-0.1c0.1,0,0.1,0.1,0.2,0c0.3,0,0.6-0.1,0.9-0.2
		c0.2-0.1,0.5-0.2,0.6-0.4c0.1-0.1,0.1-0.2,0.1-0.3c0.1-0.1,0.1-0.1,0.2-0.2c0,0,0.2,0,0.3-0.1l0.1,0c0,0,0,0,0,0
		c0.1,0.2,0.2,0.2,0.4,0.2c0-0.1,0.1-0.2,0.2-0.3c0,0,0,0,0.1,0c0.3,0.1,0.5,0.1,0.7,0c0.2-0.1,0.4-0.2,0.5-0.3
		c0.1-0.1,0.3-0.2,0.4-0.2c0.1,0,0.1,0,0.2,0c0.3,0,0.6-0.2,1-0.3c-0.3-0.6-0.2-0.8-0.5-1.1c-0.3,0.1-0.5,0.3-0.6,0.6
		c-0.3,0-0.6,0.2-0.8,0.3c-0.2,0.2-0.3,0.2-0.4,0.2c-0.1,0-0.1,0-0.2,0c-0.1-0.1-0.1-0.2-0.2-0.3c-0.2,0-0.3,0.1-0.4,0.2
		c-0.1,0-0.2,0-0.3,0l-0.1,0c-0.3,0-0.7,0.1-1,0.5c-0.1,0-0.1,0-0.2,0l-0.2,0l-0.1,0.1c-0.2,0.1-0.3,0.3-0.3,0.5c0,0,0,0,0,0.1
		c-0.1,0-0.2,0-0.3,0.1c-0.2-0.1-0.4-0.1-0.5-0.1c-0.2-0.1-0.4,0-0.6,0.2c-0.1,0.1-0.2,0.1-0.4,0.2c-0.1,0-0.2,0.1-0.2,0.1
		c-0.1,0-0.1-0.1-0.2-0.1l-0.1-0.1l-0.1,0c-0.4-0.1-0.6,0.2-0.8,0.3c0,0-0.1,0.1-0.1,0.1c0,0-0.1,0.1-0.1,0.1c-0.1,0-0.2,0-0.3,0.1
		c0,0.1,0.1,0.2,0.2,0.2c0,0.1,0,0.1,0,0.2C62.5,31.7,62.3,31.7,62.2,31.3z M66.9,30.5C66.9,30.5,66.9,30.5,66.9,30.5
		c0,0,0.1,0,0.1,0c0,0-0.1,0.1-0.2,0.1C66.8,30.5,66.9,30.5,66.9,30.5z"/>
	<path id="XMLID_882_" style="fill:#C4C4C4;" d="M18.7,46.8c-0.4,0-0.8,0.2-1.1,0.5c0,0,0,0,0-0.1c0,0,0,0,0,0c0,0,0,0,0,0
		c-0.1-0.1-0.1-0.1-0.2-0.1c-0.7-0.2-1,0.3-1.2,0.5c0,0-0.1,0.1-0.1,0.1c0,0-0.1,0.1-0.1,0.1c-0.1,0-0.3,0-0.3,0.1
		c-0.2-0.1-0.4-0.3-0.7-0.1c-0.2,0.1-0.3,0.3-0.2,0.5c0,0.1,0.1,0.2,0.3,0.2c-0.1,0.5,0.3,0.2,0.3,0.1c0,0,0,0,0,0
		c0,0,0.1,0.1,0.2,0.1c0,0.1,0,0.1,0.1,0.2c0.3-0.1,0.8-0.1,1-0.3c0,0,0.1,0,0.1,0c0.1,0,0.1-0.1,0.2-0.1c0.1-0.1,0.1-0.1,0.2-0.2
		c0.1-0.1,0.1-0.2,0.2-0.2c0,0,0.1,0,0.1,0c0,0.1,0.1,0.1,0.1,0.3c0.1-0.1,0.2-0.1,0.4-0.1c0,0,0,0,0,0c0.2,0.1,0.3,0.1,0.5,0.1
		c0.1,0,0.2-0.1,0.3-0.2c0.1-0.1,0.2-0.1,0.3-0.1c0.3,0,0.6-0.3,0.6-0.6C19.3,47,19,46.8,18.7,46.8z"/>
	<path id="XMLID_879_" style="fill:#C4C4C4;" d="M94.4,57.1c-0.1,0-0.1,0.1-0.2,0.2c-5,2-10.6,3.8-15.9,5.7
		c-0.1-0.1-0.2-0.1-0.3-0.1c-0.2,0-0.5,0.1-0.8,0.3c-0.1,0.1-0.1,0.2-0.1,0.3c-1.8,0.6-3.6,1.2-5.4,1.9c-0.1-0.1-0.3-0.2-0.5-0.2
		c-0.2,0-0.5,0.1-0.7,0.3c-0.1,0.1-0.2,0.2-0.2,0.3c0,0,0,0,0,0c-0.5-0.2-0.9,0.1-1.2,0.2C68.9,66,68.8,66,68.7,66c0,0-0.1,0-0.1,0
		c-0.1,0-0.2,0-0.2,0c-0.2,0-0.5,0.1-0.7,0.3c-0.2,0.1-0.2,0.3-0.2,0.4c-0.2,0.1-0.4,0.1-0.6,0.1c-0.1-0.1-0.2-0.1-0.4-0.1
		c-0.4,0-0.7,0.2-1,0.4c-0.2,0.1-0.2,0.3-0.3,0.4l0,0c0,0,0,0,0,0c-0.2-0.2-0.7-0.4-1.3,0.3c0,0-0.1,0.1-0.1,0.1
		c-1.2,0.4-2.4,0.8-3.6,1.3c-0.1-0.1-0.3-0.2-0.5-0.2c-0.4,0.1-0.8,0.2-1.2,0.4c-0.2,0.1-0.3,0.3-0.3,0.4c-0.3,0.1-0.6,0.1-0.9,0.2
		c0.2,0.3,0.3,0.3,0.4,0.4l0,0c-0.1,0-0.2,0-0.3,0.1c0,0-0.1,0-0.1,0c0-0.3,0.1-0.4-0.3-0.4c-2.2,1.1-3.8,1.4-6,2.2
		c-0.1-0.1-0.3-0.2-0.5-0.1c-0.2,0-0.5,0.1-0.7,0.3c-0.1,0.1-0.2,0.2-0.2,0.4c-1.1,0.4-2.2,0.8-3.3,1.2c-0.1-0.1-0.3-0.2-0.4-0.2
		c-0.4,0-0.7,0.2-1,0.4c-0.2,0.1-0.2,0.2-0.3,0.4c-4.2,1.5-9.8,3.4-14.8,5.2c-1.3,0.5-2.7,0.8-3.7,1.4c0.4,0.7,1-0.2,1.3,0.7
		c0,0,0.1,0,0.1,0c0.1,0.1,0.1,0.1,0.2,0.1c0.2,0,0.4,0,0.6-0.1c0.2-0.1,0.4-0.2,0.5-0.3c0.1-0.1,0.1-0.1,0.1-0.2
		c0.4-0.2,0.6-0.4,1-0.4c0.3-0.2,0-0.8,0.5-0.9c0.3,0.1,0.3,0.7,0.7,0.5c0.6,0,0.2-0.6,0.6-0.7c0.5,0.8,1.6-0.4,1.6-0.8
		c0.2,0.3,0.6,0.4,1,0.4c0.5-0.6,1.8-0.5,2.7-0.9c-0.1-0.2-0.4-0.6,0.1-0.6c0.1,0.4,0.3,0,0.3,0.5c0.1-0.5,1.9-0.1,1.8-1.1
		c0.1,0.4,0.3,0.3,0.5,0.2c0.1,0.1,0.3,0.2,0.5,0.2c0.1,0,0.2,0,0.2-0.1c0.2-0.1,0.4-0.2,0.6-0.4c0.1-0.1,0.1-0.1,0.2-0.2
		c0.5-0.1,0.7-0.5,1.1-0.8c0.1,0.6,0.9,0.2,1-0.1c0.4-0.2-0.6-0.2-0.2-0.5c0.3,0,0.6,0.1,0.7,0.5c0.5-0.2,1.1-0.3,1.4-0.6
		c0-0.1,0-0.2,0-0.3c0.1,0,0.2-0.1,0.3-0.1c0,0.1,0,0.2,0.1,0.3c1.1-0.1,3.1-1.4,3.6-1.5c0.1-0.2,0.3-0.3,0.4-0.4
		c0.1,0.1,0.3,0.1,0.4,0c0,0,0.1,0,0.1-0.1c0.1,0,0.1-0.1,0.3-0.1c0.1,0,0.1,0,0.2-0.1c0,0.1,0.1,0.1,0.1,0.3
		c0.4-0.2,0.6-0.5,0.9-0.7c0.1,0.3,0.4,0.4,0.7,0.3c1.8-0.9,3-1,4.6-1.8c0.1,0.1,0.3,0.2,0.4,0.1c0.1,0,0.2,0,0.3,0l0.1,0
		c0,0,0.1,0,0.1,0c0.1,0,0.2-0.1,0.3-0.3c0.5-0.1,1.1-0.3,1.1-0.7c-0.3,0.1-0.3,0.1-0.2-0.1c0.3-0.1,0.5-0.2,0.8-0.3
		c0,0,0.1,0,0.1,0c0,0.1,0,0.1,0,0.2c0,0.1,0.1,0.2,0.3,0.2c0,0,0,0,0,0c0.1,0,0.2-0.1,0.1-0.3c0,0,0-0.1,0-0.1
		c0.2-0.1,0.2-0.3,0.4-0.3c0.5,0.6,1.6-0.2,2-0.5c0.4,0.4,1.4-0.3,1.6-0.4c0.1-0.2-0.1-0.4-0.1-0.5c0,0,0,0,0,0
		c0.1,0,0.1-0.1,0.2-0.1c0.2-0.2,0.2-0.2,0.2-0.2c0,0,0,0,0,0c0,0,0.1,0,0.1,0.1c0.1,0.2,0.2,0.5,0.2,0.7c0.3-0.1,0.6-0.2,0.9-0.3
		c0.1-0.2,0.1-0.3,0-0.5c0,0,0,0,0,0c0.1-0.1,0.3-0.1,0.5-0.2c0,0.1,0,0.1,0.1,0.2c0.6-0.2,1,0,1.6-0.3c0-0.2,0-0.3,0.1-0.5
		c0,0,0.1,0,0.1-0.1c0,0,0.1-0.1,0.2-0.1c0.1,0.1,0.3-0.1,0.4,0c0.2-0.1,0.3-0.2,0.3-0.4c0.1-0.1,0.2-0.1,0.3-0.2
		c0.2-0.1,0.3-0.2,0.4-0.2c0,0,0.1,0,0.1,0c-0.1,0.2-0.2,0.2,0.1,0.5c0.5-0.2,1.1-0.3,1.4-0.6c0-0.2-0.1-0.2-0.2-0.2c0,0,0,0,0,0
		c0.2,0,0.3-0.1,0.4-0.2c0.1,0.1,0.2,0.3,0.4,0.3c0.2,0.1,1.3-0.2,1.3-0.8c1.2,0.1,3.4-0.4,4-1.6c0,0,0.1,0,0.1,0
		c0.1,0,0.1,0,0.1-0.1c0,0,0.1,0,0.2-0.1c-0.1,0.1-0.3,0.2-0.1,0.4c0.6-0.3,1-0.2,1.4-0.2c0.1-0.3-0.1-0.7,0.5-0.7
		c0.2-0.1,0.2,0.4,0.4,0.4c0.8-0.7,1.6-1,2.5-1.5c0.5,0.9,2-0.3,3-0.5c0.2-0.2,0.1-0.5,0.2-0.7c0.5,0.1,0.8-0.5,1.2-0.6
		c0.1,0,0.2,0.2,0.2,0.2c0.2,0,1.1-0.6,0.9,0c0.5-0.2,0.3-0.6,0.9-0.7c0.1,0.3,0.2,0.2,0.3,0.5c0.5-0.2,1-0.4,1.6-0.5
		c0-0.2-0.2-0.5-0.1-0.6c0.5-0.1,0.8,0.1,1.2,0.2c0.9-0.4,1.3-0.6,1.8-0.8c0.1,0.2,0.4,0.4,0.7,0.3c0,0,0.1,0,0.1,0
		c0.2-0.1,0.4-0.2,0.5-0.3l0.2-0.2l0-0.2c0-0.3-0.1-0.7-0.3-0.9C95,57,94.7,56.9,94.4,57.1z M27.5,81.4
		C27.5,81.4,27.6,81.4,27.5,81.4C27.6,81.4,27.5,81.4,27.5,81.4z"/>
	<path id="XMLID_873_" style="fill:#C4C4C4;" d="M86.2,64.3c0-0.1,0-0.1,0-0.2c-0.1-0.2-0.3-0.4-0.6-0.3c-0.2,0.1-0.4,0.3-0.3,0.6
		c0,0,0,0.1,0,0.1c0,0,0,0,0,0.1c-0.1,0.1-0.1,0.2-0.1,0.4l0,0.3c0,0,0,0.1,0,0.1c-0.3,0.1-0.5,0.1-0.7,0.3c0.7,0.2-0.2,0.8,0.4,1.2
		c-0.4,0.7-0.7,0-1.1,0.2c-0.9,0.4,0.4,1.8-0.4,2.2c-0.3,0.1-0.2-0.6-0.6-0.4c-0.2,0.3,0.1,0.7-0.2,1c-0.7,0-0.8,1.2-1,1.8
		c-0.3-0.4-0.8,0.3-0.8,0.7c0.1,0.2,0.2-0.1,0.3,0c0.1,0.9-1.4,0.4-1.3,1.2c0.4,0,0.7,0.1,0.8,0.6c-0.8-0.1-0.9,0.1-1.6,0.4
		c0,0.2,0.3,0.3,0.1,0.4c-1,0.5-1.1,1-2.1,1.6c0.1,0.3,0.1,0.6,0.1,0.8c0,0,0,0,0,0c-0.1,0-0.1,0-0.2,0c-0.1-0.1-0.3-0.2-0.4-0.1
		c0-0.1,0-0.1,0-0.2c-0.3,0-0.5,0.2-0.5,0.4c-0.1,0.1-0.2,0.2-0.2,0.3c-0.1,0-0.2,0-0.3,0.1c0,0,0,0,0,0c0,0,0,0,0,0
		c-0.1,0.1-0.2,0.1-0.2,0.2c-0.1,0.1-0.1,0.2-0.1,0.2c-0.1,0.1-0.1,0.1-0.1,0.2c-0.1,0-0.3,0.1-0.5,0.3c0.3,0.6-0.3,0.7-0.5,1
		c-0.1-0.2-0.2-0.4-0.3-0.5c-0.6,0.2-0.7,0.6-1.2,0.8c0.2,0.4,0.1,0.6,0,0.8c0,0-0.1-0.1-0.1-0.1c-0.1-0.1-0.2-0.2-0.2-0.2
		c-0.1,0-0.1-0.1-0.2-0.1c-0.2-0.1-0.4-0.1-0.6,0.1l-0.2,0.2C71.1,81,71,81.1,71,81.2c-0.6,0.2-1.2,0.4-1.7,0.7
		c-0.1-0.1-0.3,0-0.4,0.1c-0.1,0.1-0.2,0.1-0.2,0.2l-0.1,0.1c-0.1,0.1-0.1,0.1-0.1,0.2c-1.4,0.5-2.7,1.4-4.4,1.7
		c-0.7,1.1-2-0.2-3.1,1c0.2,0,0.2,0.1,0,0.3c0,0,0,0,0,0c-0.1-0.1-0.2-0.1-0.3-0.2c0,0,0-0.1,0-0.1c0,0,0,0-0.1,0
		c-0.2-0.3-0.5-0.3-0.8-0.2c-0.1,0-0.1,0.1-0.2,0.1c-0.2,0.1-0.3,0.3-0.3,0.4c-0.3,0.2-0.5,0.6-0.6,0.8c-0.2-0.3-0.6-0.2-1-0.2
		c0.1-0.3-0.3-0.8-0.9-0.4c0,0.2,0.2,0.4,0,0.4c-0.2,0.1-0.3,0.1-0.5,0.2c-0.1-0.3-0.4-0.3-0.4-0.7c-0.4,0.1-0.7,0-1.2,0.3
		c0.1,0.2,0.1,0.3,0.1,0.4c-0.1,0-0.2,0.1-0.2,0.1c-0.1,0.1-0.1,0.1-0.1,0.1c-0.1,0-0.3-0.2-0.5-0.4c-0.1-0.1-0.2-0.2-0.3-0.2
		c-0.2-0.2-0.4-0.2-0.7,0.2c-0.1-0.2,0.1-0.2,0-0.4c-0.2,0.1-0.3-0.1-0.6,0c0,0,0,0,0,0c-0.1-0.2-0.4-0.2-0.5-0.2
		c-0.1-0.1-0.2-0.2-0.4-0.2c-0.2,0-0.4,0-0.6,0c-0.2,0-0.4,0.2-0.5,0.4c-0.1,0.1-0.2,0.1-0.2,0.2c0.3-0.9-2.3-0.7-1.3-0.3
		c-0.7,0.2-1-0.1-1.2-0.6c-0.7,0.4-0.8-0.5-1.3,0c-0.1-0.2-0.2-0.4-0.3-0.5c-0.4,0.1-0.2,0.5-0.5,0.6c-0.9-1.9-3.1-0.8-3.8-2.2
		c-0.3,0.2-0.7,0.4-0.9,0.3c-0.1,0-0.1-0.3-0.1-0.4c-0.1-0.1-0.3,0.2-0.4,0c-0.2-0.2,0.6-0.2-0.1-0.3c-0.3,0,0.1,0.1-0.3,0.3
		c-0.3-0.6-0.7-1.1-1.4-0.8c-0.1-0.3,0.3-0.4,0.2-0.7c-0.4-0.1-0.6-0.4-1.2,0c0-0.2-0.5-0.7-0.5-0.3c0.4,0.1-0.4,0.6-0.2,1
		c0.3,0.2,0.8-0.1,1.2,0c0,0.1,0,0.1,0.1,0.2c0,0-0.1,0.1-0.1,0.1c-0.1,0.1-0.1,0.2-0.1,0.3c0.1,0.1,0.2,0.1,0.3,0.1c0,0,0,0,0,0
		c0.1,0,0.1-0.1,0.2-0.1c0.1,0.1,0.2,0.2,0.1,0.5c0.3,0,0.6-0.1,0.7,0c0.3,1,1.8,0.8,2.6,1.6c0.4-0.1,0.3-0.4,0.7-0.5
		c-0.1,1.3,1.3,0.8,1.8,1.4c0.3-0.1,0.2-0.3,0.3-0.4c0.7,0.6,1.5,0.9,2.3,1.2c0.3-0.3,1-0.5,1.4-0.2c-0.2,0.1-0.5,0.1-0.5,0.3
		c0.6-0.1,1.5,0.7,1.6-0.3c0.1,0.2,0.2,0.4,0.2,0.6c0.4,0,0.9,0,1.3,0c0.2-0.2,0.1-0.3,0-0.5c0.1,0,0.1,0,0.2,0c0,0,0,0,0,0
		c0,0-0.1,0.1,0,0.2c0.6,0.1,1.1,0.4,1.9,0.4c-0.2-0.3,0-0.4,0.3-0.5c0,0,0,0,0,0.1c0.2,0.2,0.6,0.8,1.2,0.8c0.1,0,0.3,0,0.4-0.1
		c0.1,0,0.2-0.1,0.3-0.2c0,0,0,0.1,0,0.1c0.8-0.1,1.8,0.1,2.1-0.7c0.7,0.7,1.5,0.5,2.5,0.1c0.1-0.1,0-0.3,0-0.5c0.1,0,0.1,0,0.2,0
		c0,0,0,0,0,0c0,0,0,0,0.1,0c0.1,0.1,0.2,0.1,0.3,0.2c0.1,0.1,0.3,0.1,0.4,0.1c0.2,0.1,0.3,0.1,0.5,0.3c0.7-0.3,0.7-0.7,1.3-0.3
		c0.1-0.2-0.1-0.5,0.3-0.5c0.1,0.2,0.1,0.5,0.4,0.3c0-0.2-0.2-0.4,0-0.4c0.4,0.3,0.1,0,0.5-0.2c0.1,0.2,0.1,0.3,0.2,0.5
		c0.8-0.4,1.9-0.5,2.6-0.9c0.2-0.1,0.1-0.3,0.3-0.4c0,0,0.1,0.2,0.2,0.2c0,0,0-0.3,0.2-0.3c0,0,0.1,0.3,0.1,0.3c1.5-0.6,2-1,3.7-1.7
		c0-0.2-0.2-0.5-0.1-0.6c0.3,0.3,0.7,0.2,1,0c0.1,0,0.1,0,0.2,0c0,0,0,0,0.1,0c0.2-0.2,0.4-0.4,0.5-0.6c0.8-0.1,0.7-0.8,1.2-1.2
		c0.1,0.1,0.1,0.4,0.3,0.3c0.3-0.4,1.8-0.9,2-1.8c0.1,0.1,0.2,0.1,0.3,0.1c0.1,0,0.2,0,0.3,0c0.2-0.1,0.4-0.3,0.5-0.5
		c0-0.1,0-0.3,0-0.4c0,0,0,0,0,0c0.5,0.1,1-1,1.5-1.2c0.1-0.2,0-0.5,0.2-0.7c1.3-0.6,1.7-1.7,2.6-2.5c-0.2-0.4-0.2-0.8,0.1-1
		c0.9,0.1,0.3-0.5,1.2-0.7c-0.3-0.4-0.1-0.3-0.3-0.8c1-0.1,1.4-1.3,1.9-2.2c0.1,0,0.1,0,0.2,0c0,0,0.1,0,0.1,0
		c0.4-0.2,0.5-0.7,0.5-1c0,0,0-0.1,0-0.1c0-0.1,0-0.2-0.1-0.3c0.4-0.5,0.7-1.1,0.8-1.7c0.2-0.1,0.3-0.3,0.4-0.5
		c0.2-0.1,0.4-0.4,0.3-0.7C86.6,64.5,86.4,64.4,86.2,64.3z M52.1,85.9C52.1,85.9,52.1,85.9,52.1,85.9C52.1,85.9,52.1,85.9,52.1,85.9
		C52.1,85.9,52.1,85.9,52.1,85.9z M69.3,82.9c-0.1,0-0.1,0-0.2-0.1l0,0c0.1-0.1,0.2-0.1,0.3-0.2c0,0,0,0,0,0c0,0,0,0,0,0
		C69.5,82.7,69.3,82.8,69.3,82.9z M72,81.7c-0.1-0.1-0.1-0.1-0.1-0.2l0.1-0.1c0,0,0.1,0.1,0.1,0.1l0,0C72.1,81.6,72.1,81.7,72,81.7z
		 M76.1,78.8C76.1,78.8,76.1,78.8,76.1,78.8C76.1,78.8,76.1,78.8,76.1,78.8C76.1,78.8,76.1,78.8,76.1,78.8z"/>
	<path id="XMLID_870_" style="fill:#C4C4C4;" d="M73,27.6c-0.1,0-0.2,0.1-0.3,0.1c-0.1,0-0.2,0-0.2,0.1c-0.2,0.2-0.3,0.4-0.3,0.6
		c0,0,0,0-0.1,0c0,0-0.1,0-0.1,0c-0.1-0.2-0.2-0.4-0.5-0.2c0,0.1,0,0.2,0,0.4c-0.1,0.2-0.1,0.4,0.1,0.6c0.1,0.1,0.2,0.1,0.2,0.2
		l0.1,0.2l0.2,0c0.1,0,0.2,0,0.4-0.1c0.1,0,0.3-0.1,0.4-0.2L73,29l0-0.2c0-0.1,0-0.2,0-0.3c0,0,0,0,0,0c0,0,0,0,0.1-0.1
		c0,0.1,0.1,0.2,0.1,0.4c0.3-0.1,0.8-0.2,0.9-0.4c0,0,0,0,0,0c0.1,0.1,0.3,0.2,0.4,0.1c0,0,0.1,0,0.1-0.1c0.1,0,0.1-0.1,0.1-0.2
		c0.5-0.1,1.1-0.4,1.7-0.7c0.1,0.2,0.3,0.2,0.5,0.2c0.2,0,0.4-0.1,0.5-0.1c0.2-0.1,0.3-0.1,0.5-0.2c0.1-0.1,0.2-0.3,0.2-0.4
		c1.9-0.7,3.8-1.4,5.5-1.9c-0.2-0.3-0.2-1.1-0.5-1.1c-0.2,0.3-0.1,0.5-0.7,0.8c-0.1-0.3,0.1-0.3-0.2-0.5c-0.9,0.2-1.4,0.6-1.5,1.1
		c-1,0.1-1.6-0.1-3,0.5c0.1,0.2,0,0.4-0.1,0.5c-0.1,0-0.2,0-0.3,0.1c-0.1,0.1-0.3,0.2-0.5,0.2c0,0-0.1,0-0.1,0
		c-0.1-0.1-0.1-0.2-0.2-0.2c-0.4,0.3-0.6,0-1.1,0.2c-0.1,0.5-0.3,0.6-0.6,0.8c0,0,0,0,0,0c-0.1-0.1-0.2-0.2-0.3-0.1
		c0,0-0.1,0.1-0.1,0.1c0,0,0,0,0-0.1l-0.1-0.1l-0.2,0C73.8,27.2,73.3,27.2,73,27.6C73,27.5,73,27.6,73,27.6z M73.8,28
		c0,0,0,0.1,0.1,0.1C73.8,28,73.7,28,73.8,28C73.7,28,73.7,28,73.8,28z"/>
	<path id="XMLID_855_" style="fill:#C4C4C4;" d="M26.2,58.7c0.1,0,0.1-0.1,0.2,0c0,0,0,0.1,0,0.1c0.2-0.4,0.3-0.8,0.5-1.1l3,8.5
		l1.8-0.7l-0.3-1l19.4-6.8L50.3,56l-9.4,3.3l-0.7-1.8l8.1-2.8l-0.5-1.5l-8.1,2.8l-0.6-1.8l4.5-1.6l-0.1,0c0,0,0,0,0,0c0,0,0,0,0,0
		c0,0,0,0,0,0l0,0l0,0l0.1,0l0,0.1l0.1,0l0-0.1c0,0,0,0.1,0,0.1l0.2-0.1c0,0,0-0.1,0-0.1c-0.2-0.2-0.3,0.1-0.4,0.1l0,0l-0.2,0
		c0.2-0.2,0.5-0.4,0.8-0.2c0,0.1,0,0.1,0,0.2l3.1-1.1l-0.5-1.5l-8.1,2.8l-0.6-1.8l8.9-3.1l-0.5-1.5l-4.4,1.5c0,0.1-0.1,0.2-0.1,0.3
		c-0.1,0.1-0.3,0-0.4,0.2c0-0.3-0.3,0-0.3-0.2l-4,1.4l0.7-0.9c-0.9-0.7-1.9-1.3-2.9-2l-1.3,1.5c0.6,0.4,1.2,0.9,1.8,1.3
		c0.3-0.2,0.6-0.5,1.1-0.3c0.1,0.2,0.1,0.3,0,0.5l-0.5,0.2c0,0,0.1,0.1,0.1,0.1l-7.6,2.7c0.2-1,0.4-1.9,0.6-3l-2,0
		c-0.4,3.5-1.4,6.8-3,10c0.6,0.4,1.2,0.8,1.7,1.2c0.3-0.5,0.5-1.1,0.7-1.7C26.2,58.9,26.2,58.8,26.2,58.7z M44.6,59.5l0.1,0.1
		c-0.2,0.2-0.5,0.2-0.7,0C44.2,59.6,44.4,59.4,44.6,59.5z M42.9,59.8L42.9,59.8L42.9,59.8l-0.1,0.1L42.9,59.8z M38.5,49.7
		c0,0.1,0.2,0.1,0.1,0.2c-0.1,0.3-0.4,0.2-0.6,0.3c0.1-0.1-0.1-0.1-0.1-0.2C38.1,49.7,38.3,49.7,38.5,49.7z M28,58.2
		c0-0.1,0-0.1,0-0.2c0.1-0.1,0.1,0.1,0.2,0.1C28.2,58.2,28.1,58.3,28,58.2z M29.4,62.7c-0.2,0.1-0.4-0.2-0.2-0.3c0.1,0,0.1,0,0.2,0
		C29.4,62.5,29.5,62.6,29.4,62.7z M29.9,59.7c-0.1-0.1,0-0.1,0.1-0.2c0.1,0,0.2,0.1,0.1,0.2C30,59.7,29.9,59.8,29.9,59.7z
		 M38.7,55.9C38.7,55.9,38.7,55.9,38.7,55.9L38.7,55.9C38.8,56,38.8,56,38.7,55.9c0.1,0.1,0.1,0.1,0.1,0.1l0,0l0.1,0l0,0
		c0,0,0,0,0,0.1c0.1,0.1,0.2,0,0.2-0.1c-0.3,0.1-0.1-0.3-0.3-0.3c0.2-0.1,0.5-0.4,0.7-0.1c0,0.1,0,0.3-0.1,0.4
		c-0.1,0-0.2,0.1-0.4,0.2c0,0,0,0-0.1,0c0,0,0,0,0.1,0c0,0,0,0,0,0l0,0l-0.2,0.1C38.8,56.1,38.7,56,38.7,55.9
		C38.8,56,38.8,56,38.7,55.9L38.6,56C38.6,55.9,38.7,55.9,38.7,55.9z M38.4,58.1L39,60l-8.2,2.9l-0.5-1.4c0,0-0.1-0.1-0.1-0.1
		L30.2,61L38.4,58.1z M37.2,54.8l0.6,1.8l-8.2,2.9L29,57.7L37.2,54.8z M36.7,54.7c-0.2,0.1-0.4,0.2-0.5,0.1
		c-0.1-0.2,0.1-0.3,0.2-0.5c0.1,0,0.4-0.1,0.5,0C36.9,54.5,36.9,54.6,36.7,54.7z M28,54.3l8.1-2.8l0.6,1.8l-8.2,2.9l-0.6-1.6
		L28,54.3z M25.7,56.6c-0.1,0.2-0.2-0.1-0.4-0.1c-0.1-0.2,0-0.4,0.1-0.5c0.1,0,0.4,0,0.4,0.2C25.9,56.4,25.9,56.5,25.7,56.6z
		 M26.2,58c0,0,0.1-0.1,0.1,0c0,0.1,0,0.1,0,0.2C26.3,58.2,26.1,58.1,26.2,58z"/>
	<path id="XMLID_849_" style="fill:#C4C4C4;" d="M50.2,69l1.8-0.7l-2.8-8L30.3,67l2.8,8l1.8-0.7l-0.4-1.3l15.2-5.3L50.2,69z
		 M50.6,66.1c0.1,0.2-0.1,0.2-0.1,0.3l-0.3,0l0-0.1c-0.2,0.1,0-0.1-0.1-0.2C50.2,66.2,50.4,66,50.6,66.1z M34,71.5l-1.3-3.6
		l15.2-5.3l1.3,3.6L34,71.5z"/>
	<path id="XMLID_732_" style="fill:#C4C4C4;" d="M78.5,44.1c1-1.4,1.8-2.9,2.2-4.4l-0.5-1.3l-9.8,3.5l0.5,1.4l0.9-0.3
		c1,1,2.3,1.7,3.7,2.2c-1.1,1.1-2.5,2.1-4.1,3c0.5,0.4,1,0.8,1.4,1.3c1.8-1.2,3.3-2.5,4.6-3.8c1.8,0.3,4,0.3,6.4,0
		c0-0.1,0-0.2,0-0.4l0,0c0,0,0-0.1,0-0.1c0-0.4,0.1-0.9,0.1-1.4C81.9,44.1,80.1,44.2,78.5,44.1z M74.2,44.5L74.2,44.5L74.2,44.5
		C74.2,44.6,74.1,44.5,74.2,44.5z M74.4,44.5l0.1-0.1c0-0.1,0-0.1,0,0l0,0C74.4,44.5,74.4,44.5,74.4,44.5l0.2,0l0.1-0.2
		c0-0.1,0-0.1,0-0.2c0,0,0,0,0,0c0,0,0,0,0,0c0,0-0.1,0.1-0.1,0.1c0,0,0,0.1-0.1,0.1l0,0c0,0,0.1-0.1,0.1-0.1c0,0,0.1-0.1,0.1-0.1
		c0,0,0,0,0,0c0,0,0,0,0,0c0,0,0,0,0,0c0.1,0,0.2-0.1,0.2-0.1c0.1,0,0.1,0.1,0.2,0.1C74.9,44.5,74.6,44.5,74.4,44.5z M76.7,43.8
		c-1.2-0.3-2.3-0.8-3.3-1.5l5.2-1.8C78.2,41.6,77.6,42.7,76.7,43.8z M79.4,44.7C79.4,44.6,79.4,44.6,79.4,44.7l0-0.1l-0.1,0.2
		c-0.1-0.1-0.1,0-0.2,0l0.1,0l0-0.1l0.1,0l0-0.2l-0.4,0.2c0.2-0.1,0.3-0.3,0.5-0.3l0.1,0.1L79.4,44.7z M81.7,44.8c0,0,0,0.1,0,0.1
		c0.1,0.1,0.2,0,0.3,0l0-0.1C81.9,44.7,81.9,44.9,81.7,44.8c0.1-0.2,0.3-0.1,0.5-0.2c0.2,0.2-0.1,0.3-0.2,0.3c-0.1,0.1-0.3,0-0.4,0
		C81.6,44.9,81.6,44.8,81.7,44.8z"/>
	<path id="XMLID_728_" style="fill:#C4C4C4;" d="M76.4,36.6c0.4,1.2,1.2,1.6,2.2,1.2L81,37c0-0.5-0.1-1.1-0.1-1.6l-2.1,0.7
		c-0.5,0.2-0.8,0-0.9-0.4l-1-2.7l-7.1,2.5l0.6,1.7c0.4,1.1,0,2.2-1.1,3.3c0.6,0.3,1.1,0.5,1.6,0.8c1.3-1.5,1.6-3,1.1-4.5l-0.2-0.5
		l3.9-1.4L76.4,36.6z"/>
	<path id="XMLID_182_" style="fill:#C4C4C4;" d="M61.5,55.9c0.7-1.5,0.9-3.2,0.6-5l9-3.2l-1.7-4.9L59,46.5l1,2.7c0,0,0,0,0.1,0
		c0,0,0,0.1,0,0.1l0,0.1c0.7,2.1,0.7,4-0.1,5.6C60.6,55.4,61.1,55.7,61.5,55.9z M70.7,47l0,0.1L70.7,47C70.6,47,70.6,47,70.7,47
		C70.6,46.9,70.7,46.9,70.7,47z M68.4,44.7l0.8,2.2l-2.9,1l-0.8-2.2L68.4,44.7z M64.6,46c0.1,0.1-0.1,0.2-0.1,0.3l-0.1,0
		c0,0,0,0,0,0c0,0-0.1,0.1-0.2,0l-0.1,0l0-0.1c0,0.1,0,0.1,0.1,0.1l0.2-0.1c0-0.1,0-0.1,0-0.2c-0.2-0.2-0.3,0.1-0.4,0.1l0,0l-0.2,0
		C64.1,46,64.3,45.7,64.6,46z M63.9,46.3C63.9,46.3,63.9,46.3,63.9,46.3L63.9,46.3L63.9,46.3L63.9,46.3L63.9,46.3l0.2-0.1l0,0.1
		L63.9,46.3l0.8,2.2l-2.9,1L61,47.3L63.9,46.3z"/>
	<path id="XMLID_181_" style="fill:#C4C4C4;" d="M57.4,44l0.5,1.4l11.4-4L68.8,40L64,41.7l-0.6-1.6l5.6-2l-0.5-1.4l-5.6,2L62.4,37
		l-1.7,0.6l0.6,1.7l-5.9,2.1l0.5,1.4l5.9-2.1l0.1,0.3c0.2,0,0.3,0,0.4,0.2c0.1,0.2,0,0.4-0.1,0.5c0,0,0,0-0.1,0l0.2,0.5L59,43.4
		c0,0,0,0,0,0c0,0.1,0.2,0.1,0.1,0.2c-0.1,0.3-0.4,0.2-0.6,0.3c0.1-0.1-0.1-0.1-0.1-0.2c0,0,0.1-0.1,0.1-0.1L57.4,44z"/>
	<path id="XMLID_175_" style="fill:#C4C4C4;" d="M73.9,52l-0.3,0c0.1-0.1,0.1-0.1,0.2-0.2l-0.2-0.7l7.5-2.6L80.6,47l-13.5,4.7
		c0.1-0.6,0.2-1.2,0.3-1.8l-1.9,0.7c-0.1,0.9-0.3,1.8-0.7,2.7c0.1,0,0.2-0.1,0.3,0l0.1,0.1c-0.1,0.2-0.3,0.2-0.5,0.1
		c-0.2,0.5-0.4,1-0.7,1.5c0.6,0.2,1.1,0.4,1.7,0.7c0.4-0.7,0.7-1.4,0.9-2.1l5.2-1.8l0.7,2l-11.4,4l0.4,1.2c0.1-0.1,0.1-0.1,0.2-0.2
		c0.2,0,0.4,0,0.5,0.2c0,0,0,0,0,0L73,55.2l0.9,2.7c0.1,0,0.3,0,0.4,0.1c0.1,0.4-0.3,0.4-0.5,0.7l0,0c-0.1-0.1-0.3,0-0.4-0.1
		c0-0.1,0-0.2,0-0.3l-5.9,2.1l-0.8-2.3l-1.8,0.6l0.4,1.3c0,0,0.1,0,0.1,0l0.1,0c0,0-0.1,0.1-0.1,0.1c0,0,0,0,0,0c0,0,0,0,0,0l0,0
		l0.8,2.3l16.3-5.7l0.3,0.9l1.8-0.6l-1.6-4.6l-1.8,0.6l0.8,2.3l-6.4,2.2l-1-2.9l11.2-4l-0.5-1.5l-11.2,4L73.9,52z M71,60.2l-0.3,0
		l0-0.1c-0.2,0.1,0-0.1-0.1-0.2c0.1-0.1,0.3-0.3,0.5-0.1C71.2,60.1,71,60.1,71,60.2z M83.4,53.5c0.1,0,0.1,0.1,0.1,0.2
		c0,0.2-0.2,0.2-0.4,0.3c0.1-0.1,0.2-0.1,0.2-0.2l-0.1-0.1c0,0.1-0.1,0.2-0.2,0.1C83.1,53.7,83.2,53.5,83.4,53.5z"/>
	<path id="XMLID_174_" style="fill:#C4C4C4;" d="M65.6,60l0,0.1l0,0c0,0,0,0,0,0C65.6,60,65.6,60,65.6,60z"/>
</g>
</svg>
