<?xml version="1.0" encoding="utf-8"?>
<!-- Generator: Adobe Illustrator 19.0.0, SVG Export Plug-In . SVG Version: 6.00 Build 0)  -->
<svg version="1.1" id="图层_1" xmlns="http://www.w3.org/2000/svg" xmlns:xlink="http://www.w3.org/1999/xlink" x="0px" y="0px"
	 viewBox="0 0 28 28" style="enable-background:new 0 0 28 28;" xml:space="preserve">
<g id="XMLID_68_">
	<g id="XMLID_32_">
		<path id="XMLID_33_" style="fill-rule:evenodd;clip-rule:evenodd;fill:#FFAE4D;" d="M6.7,27.4c0,0,0,0.6-0.8,0.6h-4c0,0-1,0-1-0.9
			L0,12.1c0,0,0-0.9,1-0.9h4.6c0,0,1.2,0,1.2,1.1L6.7,27.4L6.7,27.4L6.7,27.4z M25.1,25.2c0,0-0.9,2.8-2,2.8H11.6
			c-0.8,0-2.9-0.5-2.9-2V11.2c0,0,5.7-4.1,5.7-9.3C14.6,1.6,14.2,0,16.3,0c0,0,5,0.5,2.1,11.2h7.7c0,0,1.9-0.2,1.9,1.8
			C28,13,28,15.8,25.1,25.2L25.1,25.2z"/>
	</g>
</g>
</svg>
