<?xml version="1.0" encoding="utf-8"?>
<!-- Generator: Adobe Illustrator 19.0.0, SVG Export Plug-In . SVG Version: 6.00 Build 0)  -->
<svg version="1.1" id="图层_1" xmlns="http://www.w3.org/2000/svg" xmlns:xlink="http://www.w3.org/1999/xlink" x="0px" y="0px"
	 viewBox="0 0 44 44" style="enable-background:new 0 0 44 44;" xml:space="preserve">
<style type="text/css">
	.st0{fill:none;}
	.st1{fill:#FFFFFF;}
</style>
<g id="XMLID_229_">
	<rect id="XMLID_729_" x="9" y="16.1" class="st0" width="26" height="18"/>
	<g>
		<rect id="XMLID_728_" x="13" y="20" class="st1" width="4" height="4"/>
		<rect id="XMLID_727_" x="13" y="26" class="st1" width="4" height="4"/>
		<rect id="XMLID_681_" x="20" y="20" class="st1" width="4" height="4"/>
		<rect id="XMLID_667_" x="27" y="20" class="st1" width="4" height="4"/>
		<rect id="XMLID_649_" x="20" y="26" class="st1" width="4" height="4"/>
		<rect id="XMLID_648_" x="13" y="7" class="st1" width="4" height="6"/>
		<rect id="XMLID_647_" x="27" y="7" class="st1" width="4" height="6"/>
	</g>
	<path id="XMLID_435_" class="st1" d="M34,9h-2v3.1v2L26,14V9h-8v5l-6,0.1v-1V9h-2c-1.4,0-3,1.1-3,2.5v22c0.2,1.3,1.3,2.4,2.6,2.5
		h24.8c1.4,0,2.4-1.1,2.6-2.4V11.3C36.9,10,35.4,9,34,9z M35,34.1H9V16H35V34.1z"/>
</g>
</svg>
