<?xml version="1.0" encoding="utf-8"?>
<!-- Generator: Adobe Illustrator 19.0.0, SVG Export Plug-In . SVG Version: 6.00 Build 0)  -->
<svg version="1.1" id="图层_1" xmlns="http://www.w3.org/2000/svg" xmlns:xlink="http://www.w3.org/1999/xlink" x="0px" y="0px"
	 viewBox="0 0 26 26" style="enable-background:new 0 0 26 26;" xml:space="preserve">
<g id="XMLID_8212_">
	<g id="XMLID_116_">
		<path id="XMLID_129_" style="fill-rule:evenodd;clip-rule:evenodd;fill:#B2B2B2;" d="M13,0C5.8,0,0,5.8,0,13s5.8,13,13,13
			c7.2,0,13-5.8,13-13C26,5.8,20.2,0,13,0L13,0z M21.1,21.1c-1,1-2.3,1.9-3.6,2.4c-1.4,0.6-2.9,0.9-4.4,0.9c-1.5,0-3-0.3-4.4-0.9
			c-1.4-0.6-2.6-1.4-3.6-2.4c-1-1-1.9-2.3-2.4-3.6C1.9,16,1.6,14.5,1.6,13c0-1.5,0.3-3,0.9-4.4C3.1,7.2,3.9,6,4.9,4.9
			c1-1,2.3-1.9,3.6-2.4C10,1.9,11.5,1.6,13,1.6c1.5,0,3,0.3,4.4,0.9c1.4,0.6,2.6,1.4,3.6,2.4c1,1,1.9,2.3,2.4,3.6
			c0.6,1.4,0.9,2.9,0.9,4.4c0,1.5-0.3,3-0.9,4.4C22.9,18.8,22.1,20,21.1,21.1L21.1,21.1z"/>
		<path id="XMLID_126_" style="fill-rule:evenodd;clip-rule:evenodd;fill:#B2B2B2;" d="M10.3,5.6H7.6c-1.1,0-2.1,0.9-2.1,2.1v2.7
			c0,1.1,0.9,2.1,2.1,2.1h2.7c1.1,0,2.1-0.9,2.1-2.1V7.6C12.4,6.5,11.5,5.6,10.3,5.6L10.3,5.6z M10.8,10.3c0,0.3-0.2,0.5-0.5,0.5
			H7.6c-0.3,0-0.5-0.2-0.5-0.5V7.6c0-0.3,0.2-0.5,0.5-0.5h2.7c0.3,0,0.5,0.2,0.5,0.5V10.3L10.8,10.3z"/>
		<path id="XMLID_123_" style="fill-rule:evenodd;clip-rule:evenodd;fill:#B2B2B2;" d="M18.3,5.6h-2.7c-1.1,0-2.1,0.9-2.1,2.1v2.7
			c0,1.1,0.9,2.1,2.1,2.1h2.7c1.1,0,2.1-0.9,2.1-2.1V7.6C20.4,6.5,19.5,5.6,18.3,5.6L18.3,5.6z M18.8,10.3c0,0.3-0.2,0.5-0.5,0.5
			h-2.7c-0.3,0-0.5-0.2-0.5-0.5V7.6c0-0.3,0.2-0.5,0.5-0.5h2.7c0.3,0,0.5,0.2,0.5,0.5V10.3L18.8,10.3z"/>
		<path id="XMLID_120_" style="fill-rule:evenodd;clip-rule:evenodd;fill:#B2B2B2;" d="M10.3,13.6H7.6c-1.1,0-2.1,0.9-2.1,2.1v2.7
			c0,1.1,0.9,2.1,2.1,2.1h2.7c1.1,0,2.1-0.9,2.1-2.1v-2.7C12.4,14.6,11.5,13.6,10.3,13.6L10.3,13.6z M10.8,18.4
			c0,0.3-0.2,0.5-0.5,0.5H7.6c-0.3,0-0.5-0.2-0.5-0.5v-2.7c0-0.3,0.2-0.5,0.5-0.5h2.7c0.3,0,0.5,0.2,0.5,0.5V18.4L10.8,18.4z"/>
		<path id="XMLID_117_" style="fill-rule:evenodd;clip-rule:evenodd;fill:#B2B2B2;" d="M18.3,13.6h-2.7c-1.1,0-2.1,0.9-2.1,2.1v2.7
			c0,1.1,0.9,2.1,2.1,2.1h2.7c1.1,0,2.1-0.9,2.1-2.1v-2.7C20.4,14.6,19.5,13.6,18.3,13.6L18.3,13.6z M18.8,18.4
			c0,0.3-0.2,0.5-0.5,0.5h-2.7c-0.3,0-0.5-0.2-0.5-0.5v-2.7c0-0.3,0.2-0.5,0.5-0.5h2.7c0.3,0,0.5,0.2,0.5,0.5V18.4L18.8,18.4z"/>
	</g>
</g>
</svg>
