<?xml version="1.0" encoding="UTF-8" standalone="no"?>
<svg width="31px" height="30px" viewBox="0 0 31 30" version="1.1" xmlns="http://www.w3.org/2000/svg" xmlns:xlink="http://www.w3.org/1999/xlink">
    <!-- Generator: Sketch 39.1 (31720) - http://www.bohemiancoding.com/sketch -->
    <title>notice</title>
    <desc>Created with Sketch.</desc>
    <defs></defs>
    <g id="Page-1" stroke="none" stroke-width="1" fill="none" fill-rule="evenodd">
        <g id="Group-5-Copy" transform="translate(0.004096, 0.000000)">
            <path d="M15,0 C6.716,0 0,6.716 0,15 C0,23.284 6.716,30 15,30 C23.284,30 30,23.284 30,15 C30,6.716 23.284,0 15,0" id="Fill-1" fill="#F5A623"></path>
            <path d="M15,3.9999 C13.894,3.9999 13,4.8939 13,5.9999 C13,7.1049 13.894,7.9999 15,7.9999 C16.106,7.9999 17,7.1049 17,5.9999 C17,4.8939 16.106,3.9999 15,3.9999" id="Fill-4" fill="#FFFFFF"></path>
            <polygon id="Fill-6" fill="#FFFFFF" points="13 22 17 22 17 10 13 10"></polygon>
        </g>
    </g>
</svg>