<?xml version="1.0" encoding="utf-8"?>
<!-- Generator: Adobe Illustrator 17.0.0, SVG Export Plug-In . SVG Version: 6.00 Build 0)  -->
<!DOCTYPE svg PUBLIC "-//W3C//DTD SVG 1.1//EN" "http://www.w3.org/Graphics/SVG/1.1/DTD/svg11.dtd">
<svg version="1.1" id="图层_1" xmlns="http://www.w3.org/2000/svg" xmlns:xlink="http://www.w3.org/1999/xlink" x="0px" y="0px"
	 width="44px" height="44px" viewBox="0 0 44 44" enable-background="new 0 0 44 44" xml:space="preserve">
<g>
	<circle fill="#C6D3E1" cx="22" cy="22" r="22"/>
	<path fill="#FFFFFF" d="M35,31V13.288C35,12.023,32.945,11,31.684,11H12.257C10.995,11,11,12.023,11,13.288v17.554l2.484,4.16
		l2.821-2.024l2.795,2.024l3.013-2.024l2.891,2.024l3.061-2.024l2.916,2.104L33.971,31H35z M33,30.195l-1.973,2.045l-2.67-1.675
		l-3.202,2.024l-2.986-2.024l-3.109,2.024l-2.938-2.024l-2.114,1.713L13,30.196V13.288C13,13.128,12.128,13,12.286,13h19.427
		C31.87,13,33,13.128,33,13.288V30.195z"/>
	<g>
		
			<rect x="14.942" y="21.041" transform="matrix(0.7071 0.7071 -0.7071 0.7071 22.012 -9.0596)" fill="#FFFFFF" width="14" height="2"/>
		
			<rect x="14.942" y="21.041" transform="matrix(-0.7071 0.7071 -0.7071 -0.7071 53.0433 22.1102)" fill="#FFFFFF" width="14.001" height="2.001"/>
	</g>
</g>
</svg>
