<?xml version="1.0" encoding="utf-8"?>
<!-- Generator: Adobe Illustrator 17.0.0, SVG Export Plug-In . SVG Version: 6.00 Build 0)  -->
<!DOCTYPE svg PUBLIC "-//W3C//DTD SVG 1.1//EN" "http://www.w3.org/Graphics/SVG/1.1/DTD/svg11.dtd">
<svg version="1.1" id="图层_1" xmlns="http://www.w3.org/2000/svg" xmlns:xlink="http://www.w3.org/1999/xlink" x="0px" y="0px"
	 width="28px" height="28px" viewBox="0 0 28 28" enable-background="new 0 0 28 28" xml:space="preserve">
<g>
	<path fill-rule="evenodd" clip-rule="evenodd" fill="#138EEA" d="M23,0H5C2.242,0,0,2.242,0,5v18c0,2.758,2.242,5,5,5h18
		c2.758,0,5-2.242,5-5V5C28,2.242,25.758,0,23,0L23,0z M26,23c0,1.654-1.346,3-3,3H5c-1.654,0-3-1.346-3-3V5c0-1.654,1.346-3,3-3h18
		c1.654,0,3,1.346,3,3V23L26,23z"/>
	<path fill-rule="evenodd" clip-rule="evenodd" fill="#138EEA" d="M20.292,8.292L11,17.586l-3.292-3.294
		c-0.39-0.39-1.024-0.39-1.414,0c-0.39,0.39-0.39,1.024,0,1.414l4,4C10.488,19.902,10.744,20,11,20c0.256,0,0.512-0.098,0.708-0.292
		l10-10c0.39-0.39,0.39-1.024,0-1.414C21.318,7.904,20.684,7.902,20.292,8.292L20.292,8.292z"/>
</g>
</svg>
